<?xml version="1.0" standalone="no"?><!DOCTYPE svg PUBLIC "-//W3C//DTD SVG 1.1//EN" "http://www.w3.org/Graphics/SVG/1.1/DTD/svg11.dtd" ><svg xmlns="http://www.w3.org/2000/svg"><metadata>Generated by Glyphter</metadata><defs><font id="Glyphter" horiz-adv-x="0"><font-face units-per-em="1024" ascent="1024" descent="0" font-family="Glyphter" font-weight="normal" /><missing-glyph horiz-adv-x="0" /><glyph unicode="&#x0041;" d="M746.771,1024.5C746.771,1024.5,199.5,526.722,199.5,526.722C199.5,526.722,214.86,512.5,214.86,512.5C214.86,512.5,199.5,498.278,199.5,498.278C199.5,498.278,746.771,0.5,746.771,0.5C746.771,0.5,825.278,71.611,825.278,71.611C825.278,71.611,340.016,512.5,340.016,512.5C340.016,512.5,825.278,953.389,825.278,953.389C825.278,953.389,746.771,1024.5,746.771,1024.5" class="icon-back"/><glyph unicode="&#x0042;" d="M0,734.936C0,734.936,0,0.5,0,0.5C0,0.5,1024,0.5,1024,0.5C1024,0.5,1024,734.936,1024,734.936C1024,734.936,0,734.936,0,734.936C0,734.936,0,734.936,0,734.936M102.969,650.171C102.969,650.171,223.004,650.171,223.004,650.171C223.004,650.171,223.004,529.567,223.004,529.567C223.004,529.567,102.969,529.567,102.969,529.567C102.969,529.567,102.969,650.171,102.969,650.171C102.969,650.171,102.969,650.171,102.969,650.171M102.969,424.891C102.969,424.891,223.004,424.891,223.004,424.891C223.004,424.891,223.004,303.718,223.004,303.718C223.004,303.718,102.969,303.718,102.969,303.718C102.969,303.718,102.969,424.891,102.969,424.891C102.969,424.891,102.969,424.891,102.969,424.891M102.969,199.611C102.969,199.611,223.004,199.611,223.004,199.611C223.004,199.611,223.004,78.438,223.004,78.438C223.004,78.438,102.969,78.438,102.969,78.438C102.969,78.438,102.969,199.611,102.969,199.611C102.969,199.611,102.969,199.611,102.969,199.611M332.8,650.74C332.8,650.74,452.836,650.74,452.836,650.74C452.836,650.74,452.836,530.136,452.836,530.136C452.836,530.136,332.8,530.136,332.8,530.136C332.8,530.136,332.8,650.74,332.8,650.74C332.8,650.74,332.8,650.74,332.8,650.74M332.8,425.46C332.8,425.46,452.836,425.46,452.836,425.46C452.836,425.46,452.836,304.856,452.836,304.856C452.836,304.856,332.8,304.856,332.8,304.856C332.8,304.856,332.8,425.46,332.8,425.46C332.8,425.46,332.8,425.46,332.8,425.46M332.8,200.18C332.8,200.18,452.836,200.18,452.836,200.18C452.836,200.18,452.836,79.576,452.836,79.576C452.836,79.576,332.8,79.576,332.8,79.576C332.8,79.576,332.8,200.18,332.8,200.18C332.8,200.18,332.8,200.18,332.8,200.18M563.2,650.74C563.2,650.74,683.236,650.74,683.236,650.74C683.236,650.74,683.236,530.136,683.236,530.136C683.236,530.136,563.2,530.136,563.2,530.136C563.2,530.136,563.2,650.74,563.2,650.74C563.2,650.74,563.2,650.74,563.2,650.74M563.2,425.46C563.2,425.46,683.236,425.46,683.236,425.46C683.236,425.46,683.236,304.856,683.236,304.856C683.236,304.856,563.2,304.856,563.2,304.856C563.2,304.856,563.2,425.46,563.2,425.46C563.2,425.46,563.2,425.46,563.2,425.46M563.2,200.18C563.2,200.18,683.236,200.18,683.236,200.18C683.236,200.18,683.236,79.576,683.236,79.576C683.236,79.576,563.2,79.576,563.2,79.576C563.2,79.576,563.2,200.18,563.2,200.18C563.2,200.18,563.2,200.18,563.2,200.18M787.911,650.171C787.911,650.171,907.947,650.171,907.947,650.171C907.947,650.171,907.947,529.567,907.947,529.567C907.947,529.567,787.911,529.567,787.911,529.567C787.911,529.567,787.911,650.171,787.911,650.171C787.911,650.171,787.911,650.171,787.911,650.171M787.911,424.891C787.911,424.891,907.947,424.891,907.947,424.891C907.947,424.891,907.947,303.718,907.947,303.718C907.947,303.718,787.911,303.718,787.911,303.718C787.911,303.718,787.911,424.891,787.911,424.891C787.911,424.891,787.911,424.891,787.911,424.891M787.911,199.611C787.911,199.611,907.947,199.611,907.947,199.611C907.947,199.611,907.947,78.438,907.947,78.438C907.947,78.438,787.911,78.438,787.911,78.438C787.911,78.438,787.911,199.611,787.911,199.611C787.911,199.611,787.911,199.611,787.911,199.611M0,959.078C0,959.078,0,818.562,0,818.562C0,818.562,1024,818.562,1024,818.562C1024,818.562,1024,959.078,1024,959.078C1024,959.078,945.493,959.078,945.493,959.078C945.493,959.078,945.493,1024.5,945.493,1024.5C945.493,1024.5,811.804,1024.5,811.804,1024.5C811.804,1024.5,811.804,959.078,811.804,959.078C811.804,959.078,213.333,959.078,213.333,959.078C213.333,959.078,213.333,1024.5,213.333,1024.5C213.333,1024.5,79.644,1024.5,79.644,1024.5C79.644,1024.5,79.644,959.078,79.644,959.078C79.644,959.078,0,959.078,0,959.078C0,959.078,0,959.078,0,959.078" class="icon-calendar"/><glyph unicode="&#x0043;" d="M452.276,442.829C517.273,367.154,605.947,255.73,626.839,246.445C647.267,237.624,641.231,234.838,652.374,239.945C672.337,248.302,679.766,253.873,685.801,277.55C688.122,285.443,758.691,355.547,758.691,355.547C758.691,355.547,795.368,382.939,815.795,367.618C835.759,352.761,983.859,215.339,983.859,215.339C983.859,215.339,1018.679,182.84,991.288,144.77C964.36,106.236,906.791,31.954,865.007,16.169C823.223,0.384,707.157,-14.937,633.339,31.49C572.52,69.095,372.886,233.445,279.569,348.583C192.287,456.292,79.47,607.179,45.579,671.712C4.259,750.172,27.473,865.774,45.579,905.701C63.685,945.628,140.753,994.376,179.287,1017.125C217.822,1039.874,247.07,1002.733,247.07,1002.733C247.07,1002.733,370.101,845.811,383.564,824.919C397.028,804.027,363.137,769.207,363.137,769.207C363.137,769.207,296.282,706.996,290.711,705.139C268.426,697.71,262.855,694.925,253.57,675.89C247.999,664.748,249.856,670.783,257.284,649.427C264.712,628.071,387.743,518.504,452.276,442.829C452.276,442.829,452.276,442.829,452.276,442.829" class="icon-call"/><glyph unicode="&#x0044;" d="M118.784,548.548C118.784,548.548,414.379,401.775,414.379,401.775C414.379,401.775,857.429,989.551,857.429,989.551C857.429,989.551,1024,805.913,1024,805.913C1024,805.913,414.379,34.5,414.379,34.5C414.379,34.5,0,414.063,0,414.063C0,414.063,118.784,548.548,118.784,548.548" class="icon-checkmark-for-checkbox"/><glyph unicode="&#x0045;" d="M0,1001.221C0,1001.221,0,820.515,0,820.515C0,820.515,1024,820.515,1024,820.515C1024,820.515,1024,1001.221,1024,1001.221C1024,1001.221,0,1001.221,0,1001.221C0,1001.221,0,1001.221,0,1001.221M366.231,387.424C366.231,387.424,366.231,25.409,366.231,25.409C366.231,25.409,659.576,23,659.576,23C659.576,23,659.576,387.424,659.576,387.424C659.576,387.424,958.946,387.424,958.946,387.424C958.946,387.424,510.795,718.718,510.795,718.718C510.795,718.718,64.452,387.424,64.452,387.424C64.452,387.424,366.231,387.424,366.231,387.424C366.231,387.424,366.231,387.424,366.231,387.424" class="icon-close-hide"/><glyph unicode="&#x0046;" d="M117.295,1020.518C117.295,1020.518,117.76,465.231,117.76,465.231C117.76,465.231,906.705,465.696,906.705,465.696C906.705,465.696,907.171,1020.518,907.171,1020.518C907.171,1020.518,117.295,1020.518,117.295,1020.518C117.295,1020.518,117.295,1020.518,117.295,1020.518M97.28,367.951C97.28,367.951,0,3.5,0,3.5C0,3.5,1024,3.5,1024,3.5C1024,3.5,927.651,367.485,927.651,367.485C927.651,367.485,97.28,367.951,97.28,367.951C97.28,367.951,97.28,367.951,97.28,367.951" class="icon-computer"/><glyph unicode="&#x0047;" d="M0,511.646C0,229.32,229.39,0.5,512.285,0.5C795.18,0.5,1024,229.32,1024,511.646C1024,795.11,795.18,1023.931,512.285,1023.931C229.39,1023.931,0,795.11,0,511.646C0,511.646,0,511.646,0,511.646M383.075,751.851C383.075,751.851,511.715,622.641,511.715,622.641C511.715,622.641,640.925,751.851,640.925,751.851C668.816,779.742,716.06,777.465,746.228,746.728C776.965,715.991,779.242,668.747,751.351,641.425C751.351,641.425,622.141,512.215,622.141,512.215C622.141,512.215,751.351,383.006,751.351,383.006C779.242,355.684,776.965,308.44,746.228,277.703C716.06,247.535,668.816,244.689,640.925,272.58C640.925,272.58,511.715,401.79,511.715,401.79C511.715,401.79,383.075,272.58,383.075,272.58C355.184,244.689,307.94,247.535,277.772,277.703C247.035,308.44,244.758,355.684,272.649,383.006C272.649,383.006,401.859,512.215,401.859,512.215C401.859,512.215,272.649,641.425,272.649,641.425C244.758,668.747,247.035,715.991,277.772,746.728C307.94,777.465,355.184,779.742,383.075,751.851C383.075,751.851,383.075,751.851,383.075,751.851" class="icon-delete"/><glyph unicode="&#x0048;" d="M512.32,153.5C512.32,153.5,0,870.748,0,870.748C0,870.748,1024,870.748,1024,870.748C1024,870.748,512.32,153.5,512.32,153.5" class="icon-drop-down"/><glyph unicode="&#x0049;" d="M58.182,855.545C58.182,855.545,512,471.545,512,471.545C512,471.545,965.818,855.545,965.818,855.545C965.818,855.545,58.182,855.545,58.182,855.545C58.182,855.545,58.182,855.545,58.182,855.545M1024,797.364C1024,797.364,512,320.273,512,320.273C512,320.273,0,797.364,0,797.364C0,797.364,0,196.636,0,196.636C0,196.636,209.455,425,209.455,425C209.455,425,235.152,446.333,256,425C276.848,403.667,267.636,378.455,267.636,378.455C267.636,378.455,66.909,169,66.909,169C66.909,169,959.03,169,959.03,169C959.03,169,758.303,378.455,758.303,378.455C758.303,378.455,749.091,403.667,769.939,425C791.273,446.333,816.485,425,816.485,425C816.485,425,1024,198.576,1024,198.576C1024,198.576,1024,797.364,1024,797.364C1024,797.364,1024,797.364,1024,797.364" class="icon-email"/><glyph unicode="&#x004a;" d="M278.007,1024C278.007,1024,199.5,952.889,199.5,952.889C199.5,952.889,684.193,512,684.193,512C684.193,512,199.5,71.111,199.5,71.111C199.5,71.111,278.007,0,278.007,0C278.007,0,825.278,497.778,825.278,497.778C825.278,497.778,809.349,512,809.349,512C809.349,512,825.278,526.222,825.278,526.222C825.278,526.222,278.007,1024,278.007,1024" class="icon-forward"/><glyph unicode="&#x004b;" d="M558.08,194.56C558.08,194.56,471.04,194.56,471.04,194.56C471.04,194.56,471.04,307.2,471.04,307.2C471.04,307.2,558.08,307.2,558.08,307.2C558.08,307.2,558.08,194.56,558.08,194.56C558.08,194.56,558.08,194.56,558.08,194.56M348.16,680.96C358.4,706.56,368.64,721.92,384,742.4C399.36,762.88,414.72,768,440.32,778.24C460.8,788.48,486.4,793.6,512,793.6C547.84,793.6,573.44,788.48,599.04,778.24C624.64,768,640,757.76,655.36,742.4C670.72,727.04,680.96,711.68,686.08,696.32C691.2,680.96,696.32,660.48,696.32,650.24C696.32,624.64,691.2,604.16,686.08,588.8C680.96,573.44,670.72,558.08,665.6,547.84C655.36,537.6,645.12,527.36,634.88,517.12C624.64,506.88,614.4,501.76,604.16,491.52C593.92,481.28,583.68,476.16,578.56,465.92C568.32,455.68,568.32,440.32,563.2,424.96C563.2,424.96,563.2,394.24,563.2,394.24C563.2,394.24,471.04,394.24,471.04,394.24C471.04,394.24,471.04,430.08,471.04,430.08C471.04,450.56,476.16,471.04,481.28,486.4C486.4,501.76,491.52,512,496.64,522.24C506.88,532.48,512,542.72,522.24,547.84C532.48,558.08,542.72,563.2,547.84,573.44C552.96,583.68,563.2,588.8,568.32,599.04C573.44,609.28,578.56,619.52,573.44,634.88C573.44,660.48,568.32,675.84,558.08,686.08C547.84,696.32,532.48,701.44,512,701.44C496.64,701.44,486.4,701.44,476.16,691.2C471.04,691.2,465.92,680.96,460.8,675.84C450.56,665.6,445.44,655.36,445.44,640C440.32,629.76,440.32,634.88,440.32,619.52C440.32,619.52,332.8,619.52,332.8,619.52C332.8,645.12,337.92,655.36,348.16,680.96C348.16,680.96,348.16,680.96,348.16,680.96M512,1024C230.4,1024,0,793.6,0,512C0,230.4,230.4,0,512,0C793.6,0,1024,230.4,1024,512C1024,793.6,793.6,1024,512,1024C512,1024,512,1024,512,1024M512,56.32C261.12,56.32,56.32,261.12,56.32,512C56.32,762.88,261.12,967.68,512,967.68C762.88,967.68,967.68,762.88,967.68,512C967.68,261.12,762.88,56.32,512,56.32C512,56.32,512,56.32,512,56.32" class="icon-help-outline"/><glyph unicode="&#x004c;" d="M666.4,1000.615C396.873,1085.786,109.556,935.928,24.385,666.4C-60.786,396.873,89.072,109.556,358.6,24.385C628.127,-60.786,915.444,89.072,1000.615,358.6C1085.786,628.127,935.928,915.444,666.4,1000.615C666.4,1000.615,666.4,1000.615,666.4,1000.615M573.845,150.524C573.845,150.524,450.994,150.524,450.994,150.524C450.994,150.524,450.994,294.021,450.994,294.021C450.994,294.021,573.845,294.021,573.845,294.021C573.845,294.021,573.845,150.524,573.845,150.524C573.845,150.524,573.845,150.524,573.845,150.524M301.298,728.392C311.756,757.716,327.388,783.16,346.956,804.722C365.877,826.23,390.027,843.211,417.411,854.962C444.795,867.36,475.467,873.236,509.373,873.236C553.738,873.236,590.232,866.714,619.61,854.315C648.989,841.27,672.438,825.637,690.712,806.717C708.339,787.796,721.384,766.934,729.2,745.426C737.017,723.271,740.952,703.056,740.952,684.135C740.952,652.816,737.017,626.726,729.2,606.511C721.384,586.297,711.573,568.67,700.523,554.331C688.771,539.992,676.373,527.594,662.034,517.783C648.342,507.325,635.297,497.568,622.899,487.11C610.5,477.354,599.396,465.602,589.639,452.557C580.529,439.512,574.006,423.232,572.012,402.964C572.012,402.964,572.012,369.65,572.012,369.65C572.012,369.65,453.959,369.003,453.959,369.003C453.959,369.003,453.959,413.368,453.959,413.368C455.899,441.399,461.128,464.901,469.591,483.822C478.054,502.743,480.049,515.788,491.099,529.48C502.204,542.525,513.955,554.277,526.3,564.034C538.698,573.791,549.803,583.601,560.853,593.412C571.311,603.169,579.774,614.274,586.297,626.025C592.819,637.777,595.407,652.762,594.76,670.389C594.76,700.415,587.59,722.57,573.898,736.909C560.206,751.248,540.639,758.417,515.842,758.417C499.563,758.417,485.17,755.129,472.772,747.96C461.02,741.437,450.616,732.327,443.447,720.576C435.631,709.471,429.755,695.779,425.82,680.793C422.586,665.161,421.885,669.042,421.885,651.415C421.885,651.415,285.558,651.415,285.558,651.415C286.312,686.669,290.247,698.42,301.298,728.392C301.298,728.392,301.298,728.392,301.298,728.392" class="icon-help"/><glyph unicode="&#x004d;" d="M0,512C0,229.376,228.864,0,512,0C794.624,0,1024,229.376,1024,512C1024,794.624,794.624,1024,512,1024C228.864,1024,0,794.624,0,512C0,512,0,512,0,512M345.6,309.76C345.6,309.76,445.44,309.76,445.44,309.76C445.44,309.76,448,511.488,448,511.488C448,511.488,400.384,512.512,400.384,512.512C385.024,512.512,361.472,531.968,361.472,545.792C361.472,545.792,363.008,582.144,363.008,582.144C363.008,595.968,385.024,614.4,400.384,614.4C400.384,614.4,604.672,614.912,604.672,614.912C604.672,614.912,603.648,309.76,603.648,309.76C603.648,309.76,703.488,309.76,703.488,309.76C703.488,309.76,705.024,203.776,705.024,203.776C705.024,203.776,348.16,203.776,348.16,203.776C348.16,203.776,345.6,309.76,345.6,309.76C345.6,309.76,345.6,309.76,345.6,309.76M441.344,796.16C441.344,838.144,482.816,870.4,525.312,870.4C567.808,870.4,608.256,834.56,608.256,792.064C608.256,750.08,567.808,716.8,525.312,716.8C482.816,716.8,441.344,753.664,441.344,796.16C441.344,796.16,441.344,796.16,441.344,796.16" class="icon-info"/><glyph unicode="&#x004e;" d="M0,38C0,38,1024,38,1024,38C1024,38,1024,218.706,1024,218.706C1024,218.706,0,218.706,0,218.706C0,218.706,0,38,0,38C0,38,0,38,0,38M659.576,621.68C659.576,621.68,659.576,986.104,659.576,986.104C659.576,986.104,366.231,983.694,366.231,983.694C366.231,983.694,366.231,621.68,366.231,621.68C366.231,621.68,64.452,621.68,64.452,621.68C64.452,621.68,510.795,290.386,510.795,290.386C510.795,290.386,958.946,621.68,958.946,621.68C958.946,621.68,659.576,621.68,659.576,621.68C659.576,621.68,659.576,621.68,659.576,621.68" class="icon-open-show"/><glyph unicode="&#x0057;" d="M777.635,421.445C777.635,421.445,764.463,421.445,764.463,421.445C727.874,325.827,633.231,257.527,522.001,257.527C434.676,257.527,357.595,299.483,310.761,363.879C310.761,363.879,444.433,399.492,444.433,399.492C444.433,399.492,155.625,556.092,155.625,556.092C155.625,556.092,0,280.944,0,280.944C0,280.944,146.355,319.972,146.355,319.972C216.606,188.253,358.571,98,522.001,98C689.822,98,845.934,214.596,914.233,352.171C914.233,352.171,777.635,421.445,777.635,421.445C777.635,421.445,777.635,421.445,777.635,421.445M247.341,603.414C247.341,603.414,261,603.414,261,603.414C297.101,699.033,391.745,767.332,502.487,767.332C589.812,767.332,666.893,725.377,713.727,660.493C713.727,660.493,580.543,624.879,580.543,624.879C580.543,624.879,868.863,468.767,868.863,468.767C868.863,468.767,1024,743.427,1024,743.427C1024,743.427,877.645,704.399,877.645,704.399C807.882,836.607,665.917,926.859,502.487,926.859C335.154,926.859,179.041,810.263,111.23,672.689C111.23,672.689,247.341,603.414,247.341,603.414C247.341,603.414,247.341,603.414,247.341,603.414" class="icon-refresh"/><glyph unicode="&#x0058;" d="M383.586,924.764C540.191,924.764,667.06,797.399,667.06,641.29C667.06,484.685,540.191,357.816,383.586,357.816C227.477,357.816,100.112,484.685,100.112,641.29C100.112,797.399,227.477,924.764,383.586,924.764C383.586,924.764,383.586,924.764,383.586,924.764M383.586,257.708C462.384,257.708,535.73,281.496,596.687,322.629C597.678,321.143,599.165,319.656,600.156,318.665C600.156,318.665,896.515,22.306,896.515,22.306C911.383,7.934,930.215,0.5,949.543,0.5C968.871,0.5,987.703,7.934,1002.57,22.306C1031.81,51.545,1031.81,99.121,1002.57,128.361C1002.57,128.361,706.211,424.72,706.211,424.72C705.22,425.711,703.733,427.198,702.247,428.189C743.38,489.146,767.168,562.492,767.168,641.29C767.168,852.409,595.201,1024.376,383.586,1024.376C172.468,1024.376,0.5,852.409,0.5,641.29C0.5,429.676,172.468,257.708,383.586,257.708C383.586,257.708,383.586,257.708,383.586,257.708" class="icon-search"/><glyph unicode="&#x0059;" d="M218.59,758.418C218.59,758.418,218.59,571.745,218.59,571.745C218.59,571.745,173.5,570.843,173.5,570.843C173.5,570.843,174.402,0,174.402,0C174.402,0,850.756,0,850.756,0C850.756,0,851.207,571.745,851.207,571.745C851.207,571.745,806.116,571.745,806.116,571.745C806.116,571.745,806.567,763.829,806.567,763.829C817.84,906.765,646.046,1024,512.579,1024C379.112,1024,212.278,901.805,218.59,758.418C218.59,758.418,218.59,758.418,218.59,758.418M307.869,740.382C307.869,740.382,306.516,740.382,306.516,740.382C316.436,820.192,352.508,948.699,514.382,949.15C677.158,950.052,712.78,817.487,719.092,765.182C719.092,765.182,718.19,765.182,718.19,765.182C718.19,765.182,717.74,572.646,717.74,572.646C717.74,572.646,307.869,572.646,307.869,572.646C307.869,572.646,307.869,740.382,307.869,740.382C307.869,740.382,307.869,740.382,307.869,740.382M625.304,88.377C625.304,88.377,399.853,88.377,399.853,88.377C399.853,88.377,465.685,267.836,465.685,267.836C426.907,285.872,399.853,325.101,399.853,370.642C399.853,432.867,450.354,483.368,512.579,483.368C574.803,483.368,625.304,432.867,625.304,370.642C625.304,323.748,596.447,283.167,555.415,266.483C555.415,266.483,625.304,88.377,625.304,88.377C625.304,88.377,625.304,88.377,625.304,88.377" class="icon-security"/><glyph unicode="&#x005a;" d="M394.1,1024C394.1,1024,394.1,630.4,394.1,630.4C394.1,630.4,0.5,630.4,0.5,630.4C0.5,630.4,0.5,393.6,0.5,393.6C0.5,393.6,394.1,393.6,394.1,393.6C394.1,393.6,394.1,0,394.1,0C394.1,0,630.26,0,630.26,0C630.26,0,630.26,393.6,630.26,393.6C630.26,393.6,1023.86,393.6,1023.86,393.6C1023.86,393.6,1023.86,630.4,1023.86,630.4C1023.86,630.4,630.26,630.4,630.26,630.4C630.26,630.4,630.26,1024,630.26,1024C630.26,1024,394.1,1024,394.1,1024" class="icon-add"/><glyph unicode="&#x0061;" d="M512.32,153.5C512.32,153.5,0,870.748,0,870.748C0,870.748,1024,870.748,1024,870.748C1024,870.748,512.32,153.5,512.32,153.5" class="icon-sort"/><glyph unicode="&#x0062;" d="M665.771,966.757C396.607,1028.578,108.842,920.255,24.044,724.947C-36.682,586.535,21.309,442.105,156.438,347.46C126.895,188.806,72.734,40,72.734,40C72.734,40,391.683,253.909,391.683,253.909C651,208.501,918.523,315.729,1000.039,502.284C1085.384,697.593,935.483,905.484,665.771,966.757C665.771,966.757,665.771,966.757,665.771,966.757" class="icon-text-mobile-alerts"/><glyph unicode="&#x0063;" d="M0,825.6C0,825.6,0,633.6,0,633.6C0,633.6,665.6,633.6,665.6,633.6C665.6,633.6,665.6,499.2,665.6,499.2C665.6,499.2,1024,712.533,1024,712.533C1024,712.533,665.6,960,665.6,960C665.6,960,665.6,825.6,665.6,825.6C665.6,825.6,0,825.6,0,825.6C0,825.6,0,825.6,0,825.6M1024,390.4C1024,390.4,358.4,390.4,358.4,390.4C358.4,390.4,358.4,524.8,358.4,524.8C358.4,524.8,0,277.333,0,277.333C0,277.333,358.4,64,358.4,64C358.4,64,358.4,198.4,358.4,198.4C358.4,198.4,1024,198.4,1024,198.4C1024,198.4,1024,390.4,1024,390.4C1024,390.4,1024,390.4,1024,390.4" class="icon-transfer-money"/></font>
</defs>
</svg>
