<?xml version="1.0" encoding="utf-8"?>
<!-- Generator: Adobe Illustrator 17.0.0, SVG Export Plug-In . SVG Version: 6.00 Build 0)  -->
<!DOCTYPE svg PUBLIC "-//W3C//DTD SVG 1.1//EN" "http://www.w3.org/Graphics/SVG/1.1/DTD/svg11.dtd">
<svg version="1.1" id="Layer_1" xmlns="http://www.w3.org/2000/svg" xmlns:xlink="http://www.w3.org/1999/xlink" x="0px" y="0px"
	 width="18px" height="18px" viewBox="41 41 18 18" enable-background="new 41 41 18 18" xml:space="preserve">
<path fill="#666666" d="M41.005,50.01c0,4.96,4.03,8.98,9,8.98s8.99-4.02,8.99-8.98c0-4.98-4.02-9-8.99-9S41.005,45.03,41.005,50.01
	z M47.735,45.79l2.26,2.27l2.27-2.27c0.49-0.49,1.32-0.45,1.85,0.09c0.54,0.54,0.58,1.37,0.09,1.85L51.935,50l2.27,2.27
	c0.49,0.48,0.45,1.31-0.09,1.85c-0.53,0.53-1.36,0.58-1.85,0.09l-2.27-2.27l-2.26,2.27c-0.49,0.49-1.32,0.44-1.85-0.09
	c-0.54-0.54-0.58-1.37-0.09-1.85l2.27-2.27l-2.27-2.27c-0.49-0.48-0.45-1.31,0.09-1.85C46.415,45.34,47.245,45.3,47.735,45.79z"/>
</svg>
