<?xml version="1.0" encoding="utf-8"?>
<!-- Generator: Adobe Illustrator 17.0.0, SVG Export Plug-In . SVG Version: 6.00 Build 0)  -->
<!DOCTYPE svg PUBLIC "-//W3C//DTD SVG 1.1//EN" "http://www.w3.org/Graphics/SVG/1.1/DTD/svg11.dtd">
<svg version="1.1" id="Layer_1" xmlns="http://www.w3.org/2000/svg" xmlns:xlink="http://www.w3.org/1999/xlink" x="0px" y="0px"
	 width="20px" height="20px" viewBox="40 40 20 20" enable-background="new 40 40 20 20" xml:space="preserve">
<g>
	<g>
		<g>
			<path fill="none" stroke="#333333" stroke-linecap="round" stroke-linejoin="round" stroke-miterlimit="10" d="M52.86,40.94
				c5,1.58,7.78,6.91,6.2,11.92c-1.58,5-6.91,7.78-11.92,6.2c-5-1.58-7.78-6.91-6.2-11.92C42.52,42.14,47.85,39.36,52.86,40.94z"/>
		</g>
	</g>
	<path fill="#676767" stroke="#676767" stroke-linecap="round" stroke-linejoin="round" stroke-miterlimit="10" d="M50.85,56.24
		h-1.68v-2.2h1.68V56.24z M46.76,46.73c0.17-0.45,0.4-0.85,0.7-1.18s0.66-0.59,1.08-0.77c0.42-0.19,0.9-0.28,1.42-0.28
		c0.67,0,1.23,0.1,1.68,0.29c0.45,0.2,0.82,0.44,1.09,0.73c0.28,0.29,0.47,0.61,0.59,0.94c0.12,0.34,0.18,0.65,0.18,0.94
		c0,0.49-0.06,0.88-0.18,1.19s-0.26,0.58-0.44,0.8c-0.18,0.22-0.37,0.41-0.58,0.57c-0.22,0.15-0.42,0.31-0.61,0.46
		c-0.19,0.16-0.36,0.33-0.5,0.54c-0.15,0.2-0.24,0.45-0.28,0.75v0.57l-1.8-0.04v-0.68c0.03-0.43,0.1-0.79,0.23-1.09
		c0.13-0.29,0.16-0.49,0.33-0.69c0.17-0.21,0.35-0.39,0.54-0.54c0.19-0.15,0.37-0.3,0.53-0.45s0.29-0.32,0.39-0.5
		s0.15-0.4,0.14-0.68c0-0.46-0.11-0.8-0.32-1.02c-0.22-0.22-0.51-0.33-0.89-0.33c-0.26,0-0.48,0.05-0.66,0.16
		c-0.19,0.1-0.34,0.25-0.46,0.42c-0.12,0.18-0.21,0.38-0.26,0.62c-0.06,0.23-0.07,0.18-0.07,0.45h-2.09
		C46.53,47.37,46.6,47.18,46.76,46.73z"/>
</g>
</svg>
