<?xml version="1.0" encoding="utf-8"?>
<!-- Generator: Adobe Illustrator 17.0.0, SVG Export Plug-In . SVG Version: 6.00 Build 0)  -->
<!DOCTYPE svg PUBLIC "-//W3C//DTD SVG 1.1//EN" "http://www.w3.org/Graphics/SVG/1.1/DTD/svg11.dtd">
<svg version="1.1" id="Layer_1" xmlns="http://www.w3.org/2000/svg" xmlns:xlink="http://www.w3.org/1999/xlink" x="0px" y="0px"
	 width="19px" height="19px" viewBox="40.5 40.5 19 19" enable-background="new 40.5 40.5 19 19" xml:space="preserve">
<path fill="#666666" d="M52.855,40.945c-5-1.58-10.33,1.2-11.91,6.2c-1.58,5,1.2,10.33,6.2,11.91c5,1.58,10.33-1.2,11.91-6.2
	S57.855,42.525,52.855,40.945z M51.138,56.715h-2.279v-2.662h2.279V56.715z M46.082,45.995c0.194-0.544,0.484-1.016,0.847-1.416
	c0.351-0.399,0.799-0.714,1.307-0.932c0.508-0.23,1.077-0.339,1.706-0.339c0.823,0,1.5,0.121,2.045,0.351
	c0.545,0.242,0.98,0.532,1.319,0.883c0.327,0.351,0.569,0.738,0.714,1.137c0.145,0.411,0.218,0.786,0.218,1.137
	c0,0.581-0.073,1.065-0.218,1.44c-0.145,0.375-0.327,0.702-0.532,0.968c-0.218,0.266-0.448,0.496-0.714,0.678
	c-0.254,0.194-0.496,0.375-0.726,0.569c-0.23,0.181-0.436,0.399-0.617,0.641c-0.169,0.242-0.29,0.544-0.327,0.92v0.618l-2.19,0.012
	v-0.823c0.036-0.52,0.133-0.956,0.29-1.307c0.157-0.351,0.194-0.593,0.399-0.847c0.206-0.242,0.424-0.46,0.653-0.641
	c0.23-0.181,0.436-0.363,0.641-0.545c0.194-0.181,0.351-0.387,0.472-0.605s0.169-0.496,0.157-0.823c0-0.557-0.133-0.968-0.387-1.234
	c-0.254-0.266-0.617-0.399-1.077-0.399c-0.302,0-0.569,0.061-0.799,0.194c-0.218,0.121-0.411,0.29-0.544,0.508
	c-0.145,0.206-0.254,0.46-0.327,0.738c-0.06,0.29-0.073,0.218-0.073,0.545H45.79C45.804,46.769,45.877,46.551,46.082,45.995z"/>
</svg>
