<?xml version="1.0" encoding="utf-8"?>
<!-- Generator: Adobe Illustrator 17.0.0, SVG Export Plug-In . SVG Version: 6.00 Build 0)  -->
<!DOCTYPE svg PUBLIC "-//W3C//DTD SVG 1.1//EN" "http://www.w3.org/Graphics/SVG/1.1/DTD/svg11.dtd">
<svg version="1.1" id="Layer_1" xmlns="http://www.w3.org/2000/svg" xmlns:xlink="http://www.w3.org/1999/xlink" x="0px" y="0px"
	 width="20px" height="20px" viewBox="40 40 20 20" enable-background="new 40 40 20 20" xml:space="preserve">
<path fill="#666666" d="M40,50c0,5.52,4.47,10,10,10c5.52,0,10-4.48,10-10s-4.48-10-10-10C44.47,40,40,44.48,40,50z M46.75,53.95
	h1.95l0.05-3.94l-0.93-0.02c-0.3,0-0.76-0.38-0.76-0.65l0.03-0.71c0-0.27,0.43-0.63,0.73-0.63l3.99-0.01l-0.02,5.96h1.95l0.03,2.07
	H46.8L46.75,53.95z M48.62,44.45c0-0.82,0.81-1.45,1.64-1.45c0.83,0,1.62,0.7,1.62,1.53c0,0.82-0.79,1.47-1.62,1.47
	S48.62,45.28,48.62,44.45z"/>
</svg>
