<?xml version="1.0" encoding="utf-8"?>
<!-- Generator: Adobe Illustrator 19.2.1, SVG Export Plug-In . SVG Version: 6.00 Build 0)  -->
<svg version="1.1" id="Layer_1" xmlns="http://www.w3.org/2000/svg" xmlns:xlink="http://www.w3.org/1999/xlink" x="0px" y="0px"
	 viewBox="0 0 23.025 22.354" style="enable-background:new 0 0 23.025 22.354;" xml:space="preserve">
<style type="text/css">
	.st0{fill:#DE4655;}
	.st1{fill:#4C8DC3;}
	.st2{fill:#F1A44D;}
	.st3{fill:#FFFFFF;}
</style>
<g>
	<polygon class="st0" points="11.513,0.305 16.869,2.68 17.043,9.639 11.513,12.41 5.893,9.68 5.893,2.826 	"/>
	<polygon class="st1" points="17.177,9.846 22.534,12.221 22.707,19.18 17.177,21.951 11.557,19.221 11.557,12.367 	"/>
	<polygon class="st2" points="5.938,9.846 11.294,12.221 11.468,19.18 5.938,21.951 0.318,19.221 0.318,12.367 	"/>
	<g>
		<path class="st3" d="M17.343,9.598V2.515L11.548,0L5.557,2.512V9.6L0,12.124v7.27l5.913,2.96l5.6-2.823l5.639,2.823l5.874-2.96
			v-7.271L17.343,9.598z M11.277,19.08l-5.365,2.704l-0.056-0.028l-5.347-2.677v-6.627l5.364-2.437l0.052,0.024l5.352,2.477V19.08z
			 M11.512,12.137L6.066,9.68V2.851l5.479-2.297l0.049,0.021l5.24,2.274v6.833l-0.073,0.033L11.512,12.137z M22.516,19.08
			l-5.365,2.704l-0.056-0.028l-5.347-2.677v-6.604l5.279-2.46l5.488,2.438V19.08z"/>
		<path class="st3" d="M10.02,13.011l-4.127-1.75l-4.126,1.735l-0.001,5.186l0,0.27l0.239,0.127l0.071,0.037l0.142,0.076
			l3.676,1.843l4.13-2.084L10.02,13.011z M5.893,11.748l3.398,1.443c-0.009,0.004-3.393,1.591-3.398,1.591
			c-0.003,0-3.396-1.591-3.396-1.591C2.498,13.19,5.893,11.748,5.893,11.748z M5.656,19.878c-0.017-0.01-3.366-1.657-3.44-1.696
			c0.001-1.388,0.001-4.594,0.001-4.594s3.277,1.541,3.44,1.627C5.656,16.331,5.656,19.878,5.656,19.878z M6.131,19.878l0-1.061
			c0-1.198,0-2.404-0.001-3.601c0-0.017,3.441-1.627,3.441-1.627s0,3.364,0.003,4.594C9.573,18.182,6.177,19.853,6.131,19.878z
			 M2.679,14.059"/>
		<path class="st3" d="M21.258,13.011l-4.127-1.75l-4.126,1.735l-0.001,5.186l0,0.27l0.239,0.127l0.071,0.037l0.142,0.076
			l3.676,1.843l4.13-2.084L21.258,13.011z M17.131,11.748l3.398,1.443c-0.009,0.004-3.393,1.591-3.398,1.591
			c-0.003,0-3.396-1.591-3.396-1.591C13.736,13.19,17.131,11.748,17.131,11.748z M16.893,19.878c-0.017-0.01-3.366-1.657-3.44-1.696
			c0.001-1.388,0.001-4.594,0.001-4.594s3.277,1.541,3.44,1.627C16.894,16.331,16.893,19.878,16.893,19.878z M17.369,19.878l0-1.061
			c0-1.198,0-2.404-0.001-3.601c0-0.017,3.441-1.627,3.441-1.627s0,3.364,0.003,4.594C20.811,18.182,17.415,19.853,17.369,19.878z
			 M13.917,14.059"/>
		<path class="st3" d="M15.551,3.551l-4.127-1.75L7.298,3.536L7.296,8.722l0,0.27L7.535,9.12l0.071,0.037l0.142,0.076l3.676,1.76
			l4.13-2L15.551,3.551z M11.423,2.288l3.398,1.443c-0.009,0.004-3.393,1.591-3.398,1.591c-0.003,0-3.396-1.591-3.396-1.591
			C8.029,3.73,11.423,2.288,11.423,2.288z M11.186,10.335c-0.017-0.01-3.366-1.573-3.44-1.612c0.001-1.388,0.001-4.594,0.001-4.594
			s3.277,1.541,3.44,1.627C11.187,6.872,11.186,10.335,11.186,10.335z M11.661,10.335l0-0.977c0-1.198,0-2.404-0.001-3.601
			c0-0.017,3.441-1.627,3.441-1.627s0,3.364,0.003,4.594C15.103,8.723,11.707,10.309,11.661,10.335z M8.209,4.599"/>
	</g>
</g>
</svg>
