<svg id="Layer_1" data-name="Layer 1" xmlns="http://www.w3.org/2000/svg" viewBox="0 0 486 117"><defs><style>.cls-1{fill:#fff;}.cls-2{fill:#de4655;}.cls-3{fill:#4c8dc3;}.cls-4{fill:#f1a44d;}.cls-5{fill:none;stroke:#000;}.cls-5,.cls-6{stroke-miterlimit:10;stroke-width:2px;}.cls-6{fill:#3fae29;stroke:#3fae29;}.cls-7{fill:#0571cf;stroke:#0571cf;stroke-linejoin:round;}</style></defs><title>QB Launch Graphic Full (Text Outlines)</title><rect class="cls-1" width="486" height="117"/><polygon class="cls-2" points="68.51 11.49 90.84 21.69 91.57 51.57 68.51 63.47 45.08 51.75 45.08 22.31 68.51 11.49"/><polygon class="cls-3" points="92.13 52.46 114.46 62.66 115.18 92.55 92.13 104.45 68.7 92.72 68.7 63.29 92.13 52.46"/><polygon class="cls-4" points="45.27 52.46 67.6 62.66 68.33 92.55 45.27 104.45 21.84 92.72 21.84 63.29 45.27 52.46"/><path class="cls-1" d="M92.82,51.4V21L68.66,10.18,43.68,21V51.4L20.51,62.24V93.47l24.65,12.71L68.51,94.05,92,106.18l24.49-12.71V62.24ZM67.53,92.12,45.16,103.73l-.23-.12L22.64,92.11V63.65L45,53.19l.22.1L67.53,63.93Zm1-29.82L45.8,51.75V22.42l22.84-9.86.2.09L90.7,22.41V51.76l-.3.14Zm45.88,29.82L92,103.73l-.23-.12L69.49,92.11V63.75l22-10.56,22.88,10.47V92.12Z" transform="translate(0)"/><path class="cls-1" d="M62.29,66.05,45.08,58.54,27.88,66V89.42l1,.55.3.16.59.33,15.33,7.91,17.22-8.95ZM45.08,60.63l14.17,6.2S45.1,73.66,45.08,73.66L30.92,66.83Zm-1,34.91c-.07,0-14-7.12-14.34-7.28,0-6,0-19.73,0-19.73s13.66,6.62,14.34,7C44.09,80.31,44.09,95.54,44.09,95.54Zm2,0V91c0-5.14,0-10.32,0-15.46,0-.07,14.35-7,14.35-7s0,14.45,0,19.73C60.42,88.26,46.27,95.44,46.07,95.54Z" transform="translate(0)"/><path class="cls-1" d="M109.14,66.05,91.94,58.54,74.73,66V89.42l1,.55.3.16.59.33,15.33,7.91,17.22-8.95ZM91.94,60.63l14.17,6.2S92,73.66,91.94,73.66L77.78,66.83Zm-1,34.91c-.07,0-14-7.12-14.34-7.28,0-6,0-19.73,0-19.73s13.66,6.62,14.34,7C90.95,80.31,90.94,95.54,90.94,95.54Zm2,0V91c0-5.14,0-10.32,0-15.46,0-.07,14.35-7,14.35-7s0,14.45,0,19.73C107.28,88.26,93.12,95.44,92.93,95.54Z" transform="translate(0)"/><path class="cls-1" d="M85.35,25.43,68.14,17.91l-17.2,7.45V48.79l1,.55.3.16.59.33,15.33,7.56L85.36,48.8ZM68.14,20,82.3,26.2S68.16,33,68.14,33L54,26.2Zm-1,34.56c-.07,0-14-6.76-14.34-6.92,0-6,0-19.73,0-19.73s13.66,6.62,14.34,7C67.15,39.69,67.15,54.56,67.15,54.56Zm2,0v-4.2c0-5.14,0-10.32,0-15.46,0-.07,14.35-7,14.35-7s0,14.45,0,19.73C83.48,47.64,69.32,54.45,69.13,54.56Z" transform="translate(0)"/><path class="cls-5" d="M117,93" transform="translate(0)"/><path class="cls-5" d="M92,106" transform="translate(0)"/><path class="cls-5" d="M92,106" transform="translate(0)"/><path class="cls-5" d="M69,94" transform="translate(0)"/><line class="cls-6" x1="68.25" y1="9.75" x2="93.75" y2="21.25"/><line class="cls-6" x1="93.25" y1="20.5" x2="93.25" y2="51.5"/><line class="cls-6" x1="117.63" y1="62.75" x2="92.88" y2="50.75"/><line class="cls-6" x1="117" y1="94.25" x2="117" y2="62.25"/><line class="cls-6" x1="117.12" y1="93.53" x2="91.88" y2="106.28"/><line class="cls-6" x1="68" y1="94" x2="92.5" y2="106.5"/><line class="cls-6" x1="68.75" y1="9.75" x2="43.25" y2="21.25"/><line class="cls-6" x1="19.5" y1="62.25" x2="44" y2="50.75"/><line class="cls-6" x1="43.5" y1="20.5" x2="43.5" y2="51.5"/><line class="cls-6" x1="20" y1="61.38" x2="20" y2="94.13"/><line class="cls-6" x1="44.63" y1="106.88" x2="68.88" y2="94.13"/><line class="cls-6" x1="19.5" y1="93.25" x2="45.5" y2="106.75"/><rect class="cls-7" x="342" y="72" width="116" height="26" rx="1.13" ry="1.13"/><path class="cls-1" d="M358.34,84.45v3a4.41,4.41,0,0,1-1.27.64,4.91,4.91,0,0,1-1.48.21,4.75,4.75,0,0,1-1.72-.29,3.78,3.78,0,0,1-1.31-.83,3.6,3.6,0,0,1-.83-1.27,4.43,4.43,0,0,1-.29-1.63,4.59,4.59,0,0,1,.28-1.64,3.65,3.65,0,0,1,.81-1.27,3.58,3.58,0,0,1,1.27-.82,4.58,4.58,0,0,1,1.67-.29,5.16,5.16,0,0,1,.87.07,4,4,0,0,1,.74.2,3.5,3.5,0,0,1,.63.31,3.94,3.94,0,0,1,.54.42l-.3.48a.31.31,0,0,1-.18.14.32.32,0,0,1-.25-.05l-.3-.19a2.69,2.69,0,0,0-.42-.21,3.35,3.35,0,0,0-.58-.17,3.83,3.83,0,0,0-.79-.07,3.2,3.2,0,0,0-1.21.22,2.54,2.54,0,0,0-.92.62,2.75,2.75,0,0,0-.58,1,3.84,3.84,0,0,0-.2,1.29,3.9,3.9,0,0,0,.21,1.33,2.78,2.78,0,0,0,.61,1,2.57,2.57,0,0,0,1,.62,3.84,3.84,0,0,0,2.24.09,4.22,4.22,0,0,0,.83-.34V85.26h-1.23a.23.23,0,0,1-.17-.06.2.2,0,0,1-.06-.15v-.6Z" transform="translate(0)"/><path class="cls-1" d="M362,82.58a2.84,2.84,0,0,1,1.1.2,2.34,2.34,0,0,1,.84.58,2.53,2.53,0,0,1,.53.9,3.91,3.91,0,0,1,0,2.37,2.53,2.53,0,0,1-.53.9,2.31,2.31,0,0,1-.84.58,2.87,2.87,0,0,1-1.1.2,2.91,2.91,0,0,1-1.11-.2,2.33,2.33,0,0,1-.84-.58,2.54,2.54,0,0,1-.53-.9,3.91,3.91,0,0,1,0-2.37,2.55,2.55,0,0,1,.53-.9,2.36,2.36,0,0,1,.84-.58A2.87,2.87,0,0,1,362,82.58Zm0,5a1.43,1.43,0,0,0,1.23-.55,3.15,3.15,0,0,0,0-3.09,1.43,1.43,0,0,0-1.23-.56,1.73,1.73,0,0,0-.73.14,1.36,1.36,0,0,0-.52.41,1.84,1.84,0,0,0-.31.66,3.53,3.53,0,0,0-.1.89,2.55,2.55,0,0,0,.41,1.54A1.45,1.45,0,0,0,362,87.55Z" transform="translate(0)"/><path class="cls-1" d="M370.44,88.33a1.34,1.34,0,0,1-1-.37,1.47,1.47,0,0,1-.36-1.06V83.49h-.67a.22.22,0,0,1-.15-.05.2.2,0,0,1-.06-.16v-.39l.91-.12.23-1.72a.24.24,0,0,1,.07-.13.21.21,0,0,1,.15-.05h.5v1.92h1.61v.71h-1.61v3.34a.71.71,0,0,0,.17.52.6.6,0,0,0,.44.17.77.77,0,0,0,.27,0l.2-.09.14-.09a.18.18,0,0,1,.1,0,.17.17,0,0,1,.14.09l.29.47a1.83,1.83,0,0,1-.61.37A2.07,2.07,0,0,1,370.44,88.33Z" transform="translate(0)"/><path class="cls-1" d="M375,82.58a2.84,2.84,0,0,1,1.1.2,2.34,2.34,0,0,1,.84.58,2.53,2.53,0,0,1,.53.9,3.91,3.91,0,0,1,0,2.37,2.53,2.53,0,0,1-.53.9,2.31,2.31,0,0,1-.84.58,2.87,2.87,0,0,1-1.1.2,2.91,2.91,0,0,1-1.11-.2,2.33,2.33,0,0,1-.84-.58,2.54,2.54,0,0,1-.53-.9,3.91,3.91,0,0,1,0-2.37,2.55,2.55,0,0,1,.53-.9,2.36,2.36,0,0,1,.84-.58A2.87,2.87,0,0,1,375,82.58Zm0,5a1.43,1.43,0,0,0,1.23-.55,3.15,3.15,0,0,0,0-3.09,1.43,1.43,0,0,0-1.23-.56,1.73,1.73,0,0,0-.73.14,1.36,1.36,0,0,0-.52.41,1.84,1.84,0,0,0-.31.66,3.53,3.53,0,0,0-.1.89,2.55,2.55,0,0,0,.41,1.54A1.45,1.45,0,0,0,375,87.55Z" transform="translate(0)"/><path class="cls-1" d="M389.58,89.87h-.88a1.06,1.06,0,0,1-.35-.05.7.7,0,0,1-.28-.19l-1.38-1.51a4.27,4.27,0,0,1-1.36.21,4.12,4.12,0,0,1-1.58-.29,3.54,3.54,0,0,1-1.23-.83,3.73,3.73,0,0,1-.79-1.27,4.85,4.85,0,0,1,0-3.25,3.77,3.77,0,0,1,.79-1.28,3.56,3.56,0,0,1,1.23-.83,4.38,4.38,0,0,1,3.17,0,3.55,3.55,0,0,1,1.23.83,3.77,3.77,0,0,1,.79,1.28,4.56,4.56,0,0,1,.28,1.63,4.79,4.79,0,0,1-.11,1.06,4.11,4.11,0,0,1-.33.93,3.59,3.59,0,0,1-.52.78,3.52,3.52,0,0,1-.69.61Zm-7-5.57a4,4,0,0,0,.2,1.3,2.73,2.73,0,0,0,.56,1,2.44,2.44,0,0,0,.88.61,3.24,3.24,0,0,0,2.3,0,2.41,2.41,0,0,0,.88-.61,2.77,2.77,0,0,0,.56-1,4.4,4.4,0,0,0,0-2.6,2.77,2.77,0,0,0-.56-1,2.44,2.44,0,0,0-.88-.61,3.2,3.2,0,0,0-2.3,0,2.47,2.47,0,0,0-.88.61,2.73,2.73,0,0,0-.56,1A4,4,0,0,0,382.54,84.3Z" transform="translate(0)"/><path class="cls-1" d="M395,82.67v5.57h-.58a.25.25,0,0,1-.26-.2l-.08-.6a3,3,0,0,1-.81.65,2.14,2.14,0,0,1-1,.24,2,2,0,0,1-.81-.15,1.6,1.6,0,0,1-.59-.43,1.82,1.82,0,0,1-.35-.67,3,3,0,0,1-.12-.86V82.67h1v3.55a1.49,1.49,0,0,0,.29,1,1.08,1.08,0,0,0,.88.35,1.67,1.67,0,0,0,.81-.21,2.58,2.58,0,0,0,.7-.57v-4.1Z" transform="translate(0)"/><path class="cls-1" d="M398.91,82.58a2.84,2.84,0,0,1,1.1.2,2.34,2.34,0,0,1,.84.58,2.53,2.53,0,0,1,.53.9,3.91,3.91,0,0,1,0,2.37,2.53,2.53,0,0,1-.53.9,2.31,2.31,0,0,1-.84.58,2.87,2.87,0,0,1-1.1.2,2.91,2.91,0,0,1-1.11-.2,2.33,2.33,0,0,1-.84-.58,2.54,2.54,0,0,1-.53-.9,3.91,3.91,0,0,1,0-2.37,2.55,2.55,0,0,1,.53-.9,2.36,2.36,0,0,1,.84-.58A2.87,2.87,0,0,1,398.91,82.58Zm0,5a1.43,1.43,0,0,0,1.23-.55,3.15,3.15,0,0,0,0-3.09,1.43,1.43,0,0,0-1.23-.56,1.73,1.73,0,0,0-.73.14,1.36,1.36,0,0,0-.52.41,1.84,1.84,0,0,0-.31.66,3.53,3.53,0,0,0-.1.89,2.55,2.55,0,0,0,.41,1.54A1.45,1.45,0,0,0,398.91,87.55Z" transform="translate(0)"/><path class="cls-1" d="M404.41,88.33a1.34,1.34,0,0,1-1-.37A1.47,1.47,0,0,1,403,86.9V83.49h-.67a.22.22,0,0,1-.15-.05.2.2,0,0,1-.06-.16v-.39l.91-.12L403.3,81a.24.24,0,0,1,.07-.13.21.21,0,0,1,.15-.05h.5v1.92h1.61v.71H404v3.34a.71.71,0,0,0,.17.52.6.6,0,0,0,.44.17.77.77,0,0,0,.27,0l.2-.09.14-.09a.18.18,0,0,1,.1,0,.17.17,0,0,1,.14.09l.29.47a1.83,1.83,0,0,1-.61.37A2.07,2.07,0,0,1,404.41,88.33Z" transform="translate(0)"/><path class="cls-1" d="M411.14,87.46a1.87,1.87,0,0,1-.43.38,2.72,2.72,0,0,1-.54.27,3.5,3.5,0,0,1-.6.16,3.66,3.66,0,0,1-.61.05,2.84,2.84,0,0,1-1.06-.2,2.34,2.34,0,0,1-.84-.57,2.62,2.62,0,0,1-.55-.93,3.79,3.79,0,0,1-.2-1.28,3.25,3.25,0,0,1,.18-1.09,2.57,2.57,0,0,1,.51-.88,2.37,2.37,0,0,1,.82-.58,2.69,2.69,0,0,1,1.09-.21,2.51,2.51,0,0,1,.93.17,2.09,2.09,0,0,1,.74.48A2.23,2.23,0,0,1,411,84a3,3,0,0,1,.18,1.06.64.64,0,0,1,0,.31.21.21,0,0,1-.19.08h-3.72a3.26,3.26,0,0,0,.15.92,1.83,1.83,0,0,0,.36.65,1.45,1.45,0,0,0,.55.39,1.88,1.88,0,0,0,.71.13,2.09,2.09,0,0,0,.64-.09,3,3,0,0,0,.46-.18l.32-.18a.43.43,0,0,1,.22-.08.22.22,0,0,1,.19.09Zm-.79-2.61a1.92,1.92,0,0,0-.1-.62,1.4,1.4,0,0,0-.28-.49,1.26,1.26,0,0,0-.45-.32,1.7,1.7,0,0,0-1.71.3,1.93,1.93,0,0,0-.51,1.14Z" transform="translate(0)"/><path class="cls-1" d="M418,80.36a4.8,4.8,0,0,1,1.25.14,2.43,2.43,0,0,1,.86.41,1.59,1.59,0,0,1,.5.65,2.21,2.21,0,0,1,.16.86,1.72,1.72,0,0,1-.09.56,1.67,1.67,0,0,1-.27.5,1.93,1.93,0,0,1-.46.42,2.52,2.52,0,0,1-.65.3,2.38,2.38,0,0,1,1.31.62A1.64,1.64,0,0,1,421,86a2.21,2.21,0,0,1-.18.91,2,2,0,0,1-.54.71,2.51,2.51,0,0,1-.87.46,3.94,3.94,0,0,1-1.18.16h-2.78V80.36Zm-1.45.84v2.69h1.41a2.75,2.75,0,0,0,.78-.1,1.57,1.57,0,0,0,.55-.27,1.08,1.08,0,0,0,.32-.43,1.41,1.41,0,0,0,.1-.55,1.21,1.21,0,0,0-.42-1,2.13,2.13,0,0,0-1.3-.32Zm1.71,6.19a2.61,2.61,0,0,0,.79-.1,1.46,1.46,0,0,0,.54-.29,1.15,1.15,0,0,0,.31-.45A1.62,1.62,0,0,0,420,86a1.18,1.18,0,0,0-.43-1,2,2,0,0,0-1.3-.35h-1.71v2.74Z" transform="translate(0)"/><path class="cls-1" d="M426.82,82.67v5.57h-.58A.25.25,0,0,1,426,88l-.08-.6a3,3,0,0,1-.81.65,2.14,2.14,0,0,1-1,.24,2,2,0,0,1-.81-.15,1.6,1.6,0,0,1-.59-.43,1.82,1.82,0,0,1-.35-.67,3,3,0,0,1-.12-.86V82.67h1v3.55a1.49,1.49,0,0,0,.29,1,1.08,1.08,0,0,0,.88.35,1.67,1.67,0,0,0,.81-.21,2.58,2.58,0,0,0,.7-.57v-4.1Z" transform="translate(0)"/><path class="cls-1" d="M429.61,80.92a.63.63,0,0,1-.06.27.77.77,0,0,1-.15.22.71.71,0,0,1-.23.15.69.69,0,0,1-.27.06.65.65,0,0,1-.27-.06.69.69,0,0,1-.22-.15.73.73,0,0,1-.15-.22.64.64,0,0,1-.06-.27.68.68,0,0,1,.06-.27.72.72,0,0,1,.15-.23.71.71,0,0,1,.22-.15.65.65,0,0,1,.27-.05.69.69,0,0,1,.27.05.72.72,0,0,1,.23.15.76.76,0,0,1,.15.23A.67.67,0,0,1,429.61,80.92Zm-.21,1.75v5.57h-1V82.67Z" transform="translate(0)"/><path class="cls-1" d="M432,80.14v8.1h-1v-8.1Z" transform="translate(0)"/><path class="cls-1" d="M438.21,80.14v8.1h-.58a.25.25,0,0,1-.26-.2l-.09-.68a3,3,0,0,1-.81.69,2.07,2.07,0,0,1-1.06.26,2,2,0,0,1-.87-.18,1.8,1.8,0,0,1-.67-.54,2.58,2.58,0,0,1-.42-.89,4.6,4.6,0,0,1-.15-1.23,3.86,3.86,0,0,1,.17-1.15,2.82,2.82,0,0,1,.47-.92,2.19,2.19,0,0,1,.76-.61,2.24,2.24,0,0,1,1-.22,2,2,0,0,1,.88.17,2.13,2.13,0,0,1,.65.48V80.14Zm-1,3.86a1.58,1.58,0,0,0-.59-.51,1.7,1.7,0,0,0-.71-.15,1.4,1.4,0,0,0-1.19.56,2.59,2.59,0,0,0-.42,1.58,4,4,0,0,0,.09.93,1.8,1.8,0,0,0,.28.64,1.08,1.08,0,0,0,.45.37,1.48,1.48,0,0,0,.6.12,1.59,1.59,0,0,0,.84-.22,2.41,2.41,0,0,0,.66-.62Z" transform="translate(0)"/><path class="cls-1" d="M444.28,87.46a1.87,1.87,0,0,1-.43.38,2.72,2.72,0,0,1-.54.27,3.5,3.5,0,0,1-.6.16,3.66,3.66,0,0,1-.61.05,2.84,2.84,0,0,1-1.06-.2,2.34,2.34,0,0,1-.84-.57,2.62,2.62,0,0,1-.55-.93,3.79,3.79,0,0,1-.2-1.28,3.25,3.25,0,0,1,.18-1.09,2.57,2.57,0,0,1,.51-.88,2.37,2.37,0,0,1,.82-.58,2.69,2.69,0,0,1,1.09-.21,2.51,2.51,0,0,1,.93.17,2.09,2.09,0,0,1,.74.48,2.23,2.23,0,0,1,.49.78,3,3,0,0,1,.18,1.06.64.64,0,0,1,0,.31.21.21,0,0,1-.19.08h-3.72a3.26,3.26,0,0,0,.15.92,1.83,1.83,0,0,0,.36.65,1.45,1.45,0,0,0,.55.39,1.88,1.88,0,0,0,.71.13,2.09,2.09,0,0,0,.64-.09,3,3,0,0,0,.46-.18l.32-.18a.43.43,0,0,1,.22-.08.22.22,0,0,1,.19.09Zm-.79-2.61a1.92,1.92,0,0,0-.1-.62,1.4,1.4,0,0,0-.28-.49,1.26,1.26,0,0,0-.45-.32,1.7,1.7,0,0,0-1.71.3,1.93,1.93,0,0,0-.51,1.14Z" transform="translate(0)"/><path class="cls-1" d="M446.5,83.78a2.52,2.52,0,0,1,.65-.89,1.42,1.42,0,0,1,.94-.32,1.45,1.45,0,0,1,.34,0,.91.91,0,0,1,.29.12l-.07.73a.16.16,0,0,1-.17.14l-.22,0a1.56,1.56,0,0,0-.34,0,1.34,1.34,0,0,0-.47.08,1.11,1.11,0,0,0-.37.23,1.61,1.61,0,0,0-.29.37,3.2,3.2,0,0,0-.23.51v3.52h-1V82.67h.56a.31.31,0,0,1,.22.06.38.38,0,0,1,.08.21Z" transform="translate(0)"/><path d="M164,21.08a.32.32,0,0,1,.23.1l.64.69a3.49,3.49,0,0,1-1.3,1,4.48,4.48,0,0,1-1.85.35,4.38,4.38,0,0,1-1.74-.33,3.83,3.83,0,0,1-1.32-.92,4,4,0,0,1-.84-1.4,5.27,5.27,0,0,1-.29-1.78,5,5,0,0,1,.31-1.79,4.12,4.12,0,0,1,.88-1.4,4,4,0,0,1,1.35-.92,4.48,4.48,0,0,1,1.74-.33,4.28,4.28,0,0,1,1.68.31,4,4,0,0,1,1.25.82l-.54.75a.5.5,0,0,1-.12.13.35.35,0,0,1-.21.05.39.39,0,0,1-.19-.05l-.21-.13-.26-.17a2.19,2.19,0,0,0-.35-.17,2.87,2.87,0,0,0-.46-.13,3.19,3.19,0,0,0-.6-.05,2.68,2.68,0,0,0-1.07.21,2.31,2.31,0,0,0-.83.6,2.76,2.76,0,0,0-.54,1,4,4,0,0,0-.19,1.29,3.81,3.81,0,0,0,.21,1.3,2.86,2.86,0,0,0,.56,1,2.4,2.4,0,0,0,.83.6,2.58,2.58,0,0,0,1,.21,4.5,4.5,0,0,0,.6,0,2.54,2.54,0,0,0,.49-.11,2.21,2.21,0,0,0,.43-.2,2.71,2.71,0,0,0,.4-.3l.13-.09A.3.3,0,0,1,164,21.08Z" transform="translate(0)"/><path d="M172.75,23.12h-1.46a.64.64,0,0,1-.6-.32L168.86,20a.64.64,0,0,0-.23-.22.79.79,0,0,0-.36-.07h-.69v3.39H166V14.45h2.65a5.52,5.52,0,0,1,1.52.18,2.91,2.91,0,0,1,1,.51,2,2,0,0,1,.6.79,2.74,2.74,0,0,1,.06,1.84,2.4,2.4,0,0,1-.37.71,2.52,2.52,0,0,1-.6.56,3,3,0,0,1-.81.38,1.59,1.59,0,0,1,.29.21,1.52,1.52,0,0,1,.24.29Zm-4.15-4.55a2.49,2.49,0,0,0,.79-.11,1.53,1.53,0,0,0,.56-.31,1.27,1.27,0,0,0,.33-.48,1.65,1.65,0,0,0,.11-.61,1.23,1.23,0,0,0-.44-1,2.08,2.08,0,0,0-1.33-.35h-1v2.88Z" transform="translate(0)"/><path d="M175.31,15.73v2.41h3v1.24h-3v2.45h3.85v1.29h-5.47V14.45h5.47v1.28Z" transform="translate(0)"/><path d="M188,23.12h-1.25a.53.53,0,0,1-.34-.1.65.65,0,0,1-.2-.26L185.59,21H182l-.65,1.77a.58.58,0,0,1-.19.25.52.52,0,0,1-.34.11h-1.26L183,14.45h1.64Zm-2.85-3.28L184.12,17q-.08-.19-.16-.46t-.17-.57q-.08.31-.16.57t-.16.47l-1,2.87Z" transform="translate(0)"/><path d="M194.14,15.77h-2.62v7.35h-1.61V15.77h-2.62V14.45h6.85Z" transform="translate(0)"/><path d="M196.9,15.73v2.41h3v1.24h-3v2.45h3.85v1.29h-5.47V14.45h5.47v1.28Z" transform="translate(0)"/><path d="M212.77,23.12h-1.45a1,1,0,0,1-.37-.05.81.81,0,0,1-.3-.23l-.6-.62a4.45,4.45,0,0,1-1.28.73,4.35,4.35,0,0,1-1.53.26,2.91,2.91,0,0,1-1-.17,2.69,2.69,0,0,1-.86-.49,2.5,2.5,0,0,1-.61-.78,2.27,2.27,0,0,1-.23-1,2.24,2.24,0,0,1,.13-.77,2.59,2.59,0,0,1,.37-.67,2.89,2.89,0,0,1,.56-.56,3.8,3.8,0,0,1,.71-.43,3.33,3.33,0,0,1-.47-.88,2.68,2.68,0,0,1-.14-.85,2.25,2.25,0,0,1,.17-.85,2,2,0,0,1,.48-.71,2.29,2.29,0,0,1,.77-.48,2.84,2.84,0,0,1,1-.18,2.6,2.6,0,0,1,.94.16,2.27,2.27,0,0,1,.71.43,2.06,2.06,0,0,1,.47.62,2,2,0,0,1,.2.72l-.94.2a.32.32,0,0,1-.38-.23A1.5,1.5,0,0,0,209,16a1.09,1.09,0,0,0-.21-.25.94.94,0,0,0-.28-.17,1,1,0,0,0-.37-.06,1.11,1.11,0,0,0-.45.09,1,1,0,0,0-.33.23,1,1,0,0,0-.21.34,1.18,1.18,0,0,0-.07.41,1.66,1.66,0,0,0,0,.35,1.4,1.4,0,0,0,.12.34,2.17,2.17,0,0,0,.22.35,4.17,4.17,0,0,0,.33.38l2.3,2.39a4.22,4.22,0,0,0,.32-.8,4.42,4.42,0,0,0,.16-.85.39.39,0,0,1,.1-.22.28.28,0,0,1,.22-.08h.92a5.24,5.24,0,0,1-.23,1.51,4.9,4.9,0,0,1-.64,1.33ZM207,19.07a2.06,2.06,0,0,0-.7.71,1.7,1.7,0,0,0-.22.84,1.48,1.48,0,0,0,.11.59,1.33,1.33,0,0,0,.31.45,1.36,1.36,0,0,0,.46.28,1.55,1.55,0,0,0,.55.1,2.68,2.68,0,0,0,1.76-.62Z" transform="translate(0)"/><path d="M226.1,14.45v8.68h-1.42v-5.6q0-.34,0-.73l-2.62,4.93a.61.61,0,0,1-.57.35h-.23a.61.61,0,0,1-.57-.35l-2.65-4.94c0,.13,0,.26,0,.39s0,.25,0,.35v5.6h-1.42V14.45h1.4l.14,0a.31.31,0,0,1,.11.08.67.67,0,0,1,.1.14l2.6,4.82c.07.13.13.26.19.4l.17.42q.08-.22.17-.43t.19-.4l2.56-4.81a.61.61,0,0,1,.1-.14.34.34,0,0,1,.12-.08l.14,0h1.4Z" transform="translate(0)"/><path d="M235.46,23.12h-1.25a.53.53,0,0,1-.34-.1.65.65,0,0,1-.2-.26L233,21h-3.59l-.65,1.77a.58.58,0,0,1-.19.25.52.52,0,0,1-.34.11H227l3.41-8.68h1.64Zm-2.85-3.28L231.56,17q-.08-.19-.16-.46t-.17-.57q-.08.31-.16.57t-.16.47l-1,2.87Z" transform="translate(0)"/><path d="M243.68,14.45v8.68h-.83a.73.73,0,0,1-.32-.06.75.75,0,0,1-.25-.21l-4.53-5.78q0,.4,0,.73v5.33h-1.42V14.45h1l.13,0,.11.08.12.14,4.55,5.81c0-.14,0-.28,0-.41s0-.26,0-.38V14.45Z" transform="translate(0)"/><path d="M253,23.12H251.8a.53.53,0,0,1-.34-.1.65.65,0,0,1-.2-.26L250.61,21H247l-.65,1.77a.58.58,0,0,1-.19.25.52.52,0,0,1-.34.11h-1.26L248,14.45h1.64Zm-2.85-3.28L249.14,17q-.08-.19-.16-.46t-.17-.57q-.08.31-.16.57t-.16.47l-1,2.87Z" transform="translate(0)"/><path d="M260.84,18.77v3.51a4.61,4.61,0,0,1-1.41.71,5.52,5.52,0,0,1-1.6.23,5.34,5.34,0,0,1-1.92-.33,4.3,4.3,0,0,1-1.47-.92,4,4,0,0,1-.94-1.4,4.71,4.71,0,0,1-.33-1.78,4.9,4.9,0,0,1,.32-1.79,3.95,3.95,0,0,1,2.32-2.32,5.14,5.14,0,0,1,1.87-.32,5.48,5.48,0,0,1,1,.08,5,5,0,0,1,.85.23,3.72,3.72,0,0,1,.72.36,4.28,4.28,0,0,1,.59.46l-.46.73a.44.44,0,0,1-.28.21.5.5,0,0,1-.38-.09l-.4-.23a2.57,2.57,0,0,0-.44-.2,3.6,3.6,0,0,0-.55-.14,4.06,4.06,0,0,0-.7-.05,3,3,0,0,0-1.16.22,2.46,2.46,0,0,0-.89.62,2.8,2.8,0,0,0-.56,1,3.79,3.79,0,0,0-.2,1.26,3.87,3.87,0,0,0,.21,1.33,2.8,2.8,0,0,0,.6,1,2.55,2.55,0,0,0,.93.62,3.62,3.62,0,0,0,2.08.11,4.2,4.2,0,0,0,.74-.28V20h-1.09a.33.33,0,0,1-.24-.09.29.29,0,0,1-.09-.21v-.91Z" transform="translate(0)"/><path d="M264,15.73v2.41h3v1.24h-3v2.45h3.85v1.29H262.4V14.45h5.47v1.28Z" transform="translate(0)"/><path d="M275.45,19.76v3.36h-1.61V19.76l-3.16-5.32h1.42a.51.51,0,0,1,.33.1.86.86,0,0,1,.21.26l1.58,2.9q.14.26.24.49t.19.46c.05-.15.11-.3.18-.46s.15-.31.23-.49l1.58-2.9a.81.81,0,0,1,.2-.25.5.5,0,0,1,.34-.11h1.43Z" transform="translate(0)"/><path d="M287.27,18.78a4.85,4.85,0,0,1-.32,1.77,4.15,4.15,0,0,1-.89,1.41,4.05,4.05,0,0,1-1.39.93,5,5,0,0,1-3.59,0A4.08,4.08,0,0,1,279.7,22a4.16,4.16,0,0,1-.9-1.41,5.07,5.07,0,0,1,0-3.53,4.16,4.16,0,0,1,.9-1.41,4.08,4.08,0,0,1,1.39-.93,4.67,4.67,0,0,1,1.79-.33,4.86,4.86,0,0,1,1.24.15,4.36,4.36,0,0,1,1.07.43,4,4,0,0,1,.87.68,4.12,4.12,0,0,1,.66.89,4.37,4.37,0,0,1,.41,1.07A5.09,5.09,0,0,1,287.27,18.78Zm-1.65,0a4,4,0,0,0-.19-1.28,2.75,2.75,0,0,0-.55-1,2.34,2.34,0,0,0-.86-.61,3.22,3.22,0,0,0-2.29,0,2.37,2.37,0,0,0-.86.61,2.72,2.72,0,0,0-.55,1,4.37,4.37,0,0,0,0,2.56,2.69,2.69,0,0,0,.55,1,2.38,2.38,0,0,0,.86.6,3.22,3.22,0,0,0,2.29,0,2.35,2.35,0,0,0,.86-.6,2.71,2.71,0,0,0,.55-1A4,4,0,0,0,285.62,18.78Z" transform="translate(0)"/><path d="M292.19,21.82a2.13,2.13,0,0,0,.84-.16,1.71,1.71,0,0,0,.62-.44,1.94,1.94,0,0,0,.39-.68,2.82,2.82,0,0,0,.13-.9v-5.2h1.61v5.2a4,4,0,0,1-.25,1.43A3.18,3.18,0,0,1,293.69,23a4.36,4.36,0,0,1-3,0,3.18,3.18,0,0,1-1.85-1.88,4,4,0,0,1-.25-1.43v-5.2h1.61v5.19a2.82,2.82,0,0,0,.13.9,1.94,1.94,0,0,0,.39.69,1.73,1.73,0,0,0,.62.44A2.13,2.13,0,0,0,292.19,21.82Z" transform="translate(0)"/><path d="M304.38,23.12h-1.46a.64.64,0,0,1-.6-.32L300.5,20a.64.64,0,0,0-.23-.22.79.79,0,0,0-.36-.07h-.69v3.39H297.6V14.45h2.65a5.52,5.52,0,0,1,1.52.18,2.91,2.91,0,0,1,1,.51,2,2,0,0,1,.6.79,2.74,2.74,0,0,1,.06,1.84,2.39,2.39,0,0,1-.37.71,2.51,2.51,0,0,1-.6.56,3,3,0,0,1-.81.38,1.59,1.59,0,0,1,.29.21,1.54,1.54,0,0,1,.24.29Zm-4.15-4.55a2.49,2.49,0,0,0,.79-.11,1.53,1.53,0,0,0,.56-.31,1.26,1.26,0,0,0,.33-.48,1.64,1.64,0,0,0,.11-.61,1.23,1.23,0,0,0-.43-1,2.09,2.09,0,0,0-1.33-.35h-1v2.88Z" transform="translate(0)"/><path d="M317,24.82h-1.33a1.63,1.63,0,0,1-.52-.08,1,1,0,0,1-.42-.29L313.42,23a4.75,4.75,0,0,1-.63.13,5.2,5.2,0,0,1-.67,0,4.68,4.68,0,0,1-1.79-.33,4.08,4.08,0,0,1-1.39-.93,4.16,4.16,0,0,1-.9-1.41A5.06,5.06,0,0,1,308,17a4.16,4.16,0,0,1,.9-1.41,4.08,4.08,0,0,1,1.39-.93,4.67,4.67,0,0,1,1.79-.33,4.86,4.86,0,0,1,1.24.15,4.36,4.36,0,0,1,1.07.43,3.94,3.94,0,0,1,.87.68,4.15,4.15,0,0,1,.66.89,4.41,4.41,0,0,1,.41,1.07,5.09,5.09,0,0,1,.14,1.21,5,5,0,0,1-.12,1.11,4.59,4.59,0,0,1-.34,1,4.17,4.17,0,0,1-.55.85,4,4,0,0,1-.74.68Zm-7.59-6a4,4,0,0,0,.19,1.28,2.7,2.7,0,0,0,.55,1,2.38,2.38,0,0,0,.86.6,3.22,3.22,0,0,0,2.29,0,2.35,2.35,0,0,0,.86-.6,2.72,2.72,0,0,0,.55-1,4.38,4.38,0,0,0,0-2.56,2.76,2.76,0,0,0-.55-1,2.34,2.34,0,0,0-.86-.61,3.22,3.22,0,0,0-2.29,0,2.37,2.37,0,0,0-.86.61,2.73,2.73,0,0,0-.55,1A4,4,0,0,0,309.38,18.78Z" transform="translate(0)"/><path d="M321.42,21.82a2.13,2.13,0,0,0,.84-.16,1.71,1.71,0,0,0,.62-.44,1.93,1.93,0,0,0,.39-.68,2.82,2.82,0,0,0,.14-.9v-5.2H325v5.2a4,4,0,0,1-.25,1.43A3.18,3.18,0,0,1,322.92,23a4.36,4.36,0,0,1-3,0,3.18,3.18,0,0,1-1.84-1.88,4,4,0,0,1-.25-1.43v-5.2h1.61v5.19a2.79,2.79,0,0,0,.14.9,1.94,1.94,0,0,0,.39.69,1.73,1.73,0,0,0,.62.44A2.13,2.13,0,0,0,321.42,21.82Z" transform="translate(0)"/><path d="M335.12,18.78a4.85,4.85,0,0,1-.32,1.77,4.15,4.15,0,0,1-.89,1.41,4,4,0,0,1-1.39.93,5,5,0,0,1-3.59,0,4.08,4.08,0,0,1-1.39-.93,4.17,4.17,0,0,1-.9-1.41,5.08,5.08,0,0,1,0-3.53,4.17,4.17,0,0,1,.9-1.41,4.08,4.08,0,0,1,1.39-.93,4.67,4.67,0,0,1,1.79-.33,4.86,4.86,0,0,1,1.24.15,4.37,4.37,0,0,1,1.07.43,3.94,3.94,0,0,1,.87.68,4.15,4.15,0,0,1,.66.89,4.37,4.37,0,0,1,.41,1.07A5,5,0,0,1,335.12,18.78Zm-1.65,0a4,4,0,0,0-.19-1.28,2.76,2.76,0,0,0-.55-1,2.33,2.33,0,0,0-.86-.61,3.22,3.22,0,0,0-2.29,0,2.37,2.37,0,0,0-.86.61,2.72,2.72,0,0,0-.55,1,4.36,4.36,0,0,0,0,2.56,2.68,2.68,0,0,0,.55,1,2.38,2.38,0,0,0,.86.6,3.22,3.22,0,0,0,2.29,0,2.34,2.34,0,0,0,.86-.6,2.72,2.72,0,0,0,.55-1A4,4,0,0,0,333.47,18.78Z" transform="translate(0)"/><path d="M342.31,15.77h-2.62v7.35h-1.61V15.77h-2.62V14.45h6.85Z" transform="translate(0)"/><path d="M345.07,15.73v2.41h3v1.24h-3v2.45h3.85v1.29h-5.47V14.45h5.47v1.28Z" transform="translate(0)"/><path d="M355,16a.55.55,0,0,1-.15.18.34.34,0,0,1-.2.06.52.52,0,0,1-.27-.09L354,16a3,3,0,0,0-.48-.21,2,2,0,0,0-.64-.09,1.92,1.92,0,0,0-.59.08,1.23,1.23,0,0,0-.42.23.91.91,0,0,0-.25.34,1.14,1.14,0,0,0-.08.44.77.77,0,0,0,.17.51,1.44,1.44,0,0,0,.45.35,4.27,4.27,0,0,0,.64.26l.74.24a7,7,0,0,1,.74.3,2.53,2.53,0,0,1,.64.43,1.94,1.94,0,0,1,.45.64,2.22,2.22,0,0,1,.17.92,3,3,0,0,1-.2,1.1,2.55,2.55,0,0,1-.59.89,2.77,2.77,0,0,1-.95.6,3.48,3.48,0,0,1-1.28.22,4.14,4.14,0,0,1-.82-.08,4.34,4.34,0,0,1-.77-.23,4.16,4.16,0,0,1-.69-.36,3.33,3.33,0,0,1-.58-.47l.47-.77a.5.5,0,0,1,.16-.14.39.39,0,0,1,.2-.06.57.57,0,0,1,.32.12l.41.27a3.23,3.23,0,0,0,.56.27,2.15,2.15,0,0,0,.77.12,1.58,1.58,0,0,0,1.07-.33,1.18,1.18,0,0,0,.38-.94.87.87,0,0,0-.17-.56,1.38,1.38,0,0,0-.45-.36,3.46,3.46,0,0,0-.64-.25l-.73-.22a6.3,6.3,0,0,1-.73-.29,2.38,2.38,0,0,1-.64-.44,2,2,0,0,1-.45-.68,2.57,2.57,0,0,1-.17-1,2.4,2.4,0,0,1,.74-1.72,2.7,2.7,0,0,1,.89-.56,3.26,3.26,0,0,1,1.21-.21,4.05,4.05,0,0,1,1.42.24,3.2,3.2,0,0,1,1.1.67Z" transform="translate(0)"/><path d="M214.85,38.62a12.31,12.31,0,0,1,.93-2.38l.56-.06a15.06,15.06,0,0,0-.59,2.34Zm1.48,0a12.34,12.34,0,0,1,.93-2.38l.56-.06a14,14,0,0,0-.59,2.34Z" transform="translate(0)"/><path d="M219.67,36.36V43.1h-.88V36.36Z" transform="translate(0)"/><path d="M227.33,41.77c0,.51,0,.95,0,1.33h-.78l0-.79h0a1.81,1.81,0,0,1-1.6.9c-.76,0-1.67-.43-1.67-2.12V38.26h.88v2.67c0,.92.29,1.55,1.08,1.55a1.26,1.26,0,0,0,1.16-.81,1.21,1.21,0,0,0,.08-.45v-3h.88Z" transform="translate(0)"/><path d="M228.67,42.2a2.49,2.49,0,0,0,1.17.34c.63,0,.93-.31.93-.72s-.25-.64-.89-.88c-.88-.32-1.29-.8-1.29-1.37a1.5,1.5,0,0,1,1.67-1.42,2.24,2.24,0,0,1,1.18.3l-.21.63a2,2,0,0,0-1-.28c-.52,0-.8.3-.8.66s.28.58.91.83c.83.31,1.27.73,1.27,1.45s-.67,1.46-1.8,1.46a2.76,2.76,0,0,1-1.36-.34Z" transform="translate(0)"/><path d="M233.25,40.84a1.54,1.54,0,0,0,1.65,1.67,3.15,3.15,0,0,0,1.34-.25l.16.63a3.94,3.94,0,0,1-1.62.31,2.26,2.26,0,0,1-2.38-2.44,2.36,2.36,0,0,1,2.28-2.61,2,2,0,0,1,2,2.28,2.19,2.19,0,0,1,0,.41Zm2.57-.63a1.25,1.25,0,0,0-1.21-1.43,1.45,1.45,0,0,0-1.35,1.43Z" transform="translate(0)"/><path d="M241.94,36v5.85c0,.43,0,.92,0,1.25h-.79l0-.84h0a1.77,1.77,0,0,1-1.64.95,2.21,2.21,0,0,1-2.08-2.46,2.31,2.31,0,0,1,2.17-2.6,1.61,1.61,0,0,1,1.46.73h0V36Zm-.88,4.23a1.64,1.64,0,0,0,0-.38,1.3,1.3,0,0,0-1.27-1c-.91,0-1.45.8-1.45,1.86s.49,1.8,1.43,1.8A1.33,1.33,0,0,0,241,41.44a1.41,1.41,0,0,0,0-.37Z" transform="translate(0)"/><path d="M246.58,37.1v1.16h1.26v.67h-1.26v2.6c0,.6.17.94.66.94a1.64,1.64,0,0,0,.51-.06l0,.67a2.4,2.4,0,0,1-.78.12,1.25,1.25,0,0,1-.95-.37,1.89,1.89,0,0,1-.34-1.27V38.93H245v-.67h.75v-.89Z" transform="translate(0)"/><path d="M250.74,43.21a2.31,2.31,0,0,1-2.32-2.49,2.37,2.37,0,0,1,2.4-2.57,2.29,2.29,0,0,1,2.33,2.48,2.37,2.37,0,0,1-2.4,2.58Zm0-.66c.84,0,1.47-.79,1.47-1.89,0-.82-.41-1.85-1.45-1.85s-1.48,1-1.48,1.88.6,1.86,1.45,1.86Z" transform="translate(0)"/><path d="M256.38,36h.88v3h0a1.8,1.8,0,0,1,1.65-.88c1.2,0,2,1,2,2.46a2.31,2.31,0,0,1-2.18,2.6,1.73,1.73,0,0,1-1.62-.91h0l0,.8h-.76c0-.33,0-.82,0-1.25Zm.88,5.16a1.65,1.65,0,0,0,0,.32,1.37,1.37,0,0,0,1.32,1c.93,0,1.47-.75,1.47-1.86s-.5-1.81-1.44-1.81a1.39,1.39,0,0,0-1.33,1.08,1.37,1.37,0,0,0-.05.37Z" transform="translate(0)"/><path d="M262.57,40.84a1.54,1.54,0,0,0,1.65,1.67,3.15,3.15,0,0,0,1.34-.25l.16.63a3.94,3.94,0,0,1-1.62.31,2.26,2.26,0,0,1-2.38-2.44A2.36,2.36,0,0,1,264,38.15a2,2,0,0,1,2,2.28,2.15,2.15,0,0,1,0,.41Zm2.57-.63a1.25,1.25,0,0,0-1.21-1.43,1.45,1.45,0,0,0-1.35,1.43Z" transform="translate(0)"/><path d="M273.34,42.39a2.84,2.84,0,0,1-.69,2.22,2.66,2.66,0,0,1-1.77.58,3.12,3.12,0,0,1-1.61-.4l.22-.68a2.63,2.63,0,0,0,1.42.39c.9,0,1.56-.47,1.56-1.7v-.53h0a1.72,1.72,0,0,1-1.54.81,2.17,2.17,0,0,1-2.06-2.37A2.31,2.31,0,0,1,271,38.15a1.6,1.6,0,0,1,1.51.84h0l0-.73h.78c0,.34,0,.74,0,1.32Zm-.88-2.23a1.23,1.23,0,0,0,0-.39,1.26,1.26,0,0,0-1.23-.94c-.84,0-1.44.71-1.44,1.84,0,.94.49,1.74,1.43,1.74a1.27,1.27,0,0,0,1.22-.91,1.45,1.45,0,0,0,.07-.47Z" transform="translate(0)"/><path d="M274.73,39.77c0-.57,0-1.06,0-1.51h.77l0,.95h0a1.46,1.46,0,0,1,1.35-1.06l.24,0V39l-.3,0a1.23,1.23,0,0,0-1.18,1.12,2.72,2.72,0,0,0,0,.41V43.1h-.88Z" transform="translate(0)"/><path d="M278.4,40.84A1.54,1.54,0,0,0,280,42.51a3.15,3.15,0,0,0,1.34-.25l.16.63a3.94,3.94,0,0,1-1.62.31,2.26,2.26,0,0,1-2.38-2.44,2.36,2.36,0,0,1,2.28-2.61,2,2,0,0,1,2,2.28,2.15,2.15,0,0,1,0,.41Zm2.57-.63a1.25,1.25,0,0,0-1.21-1.43,1.45,1.45,0,0,0-1.35,1.43Z" transform="translate(0)"/><path d="M286.32,41.94a8.14,8.14,0,0,0,.07,1.16h-.79l-.08-.61h0a1.79,1.79,0,0,1-1.48.72,1.38,1.38,0,0,1-1.48-1.39c0-1.17,1-1.81,2.91-1.8v-.1a1,1,0,0,0-1.1-1.12,2.33,2.33,0,0,0-1.27.36l-.2-.59a3.13,3.13,0,0,1,1.6-.42c1.49,0,1.85,1,1.85,2Zm-.86-1.31c-1,0-2,.15-2,1.09a.77.77,0,0,0,.82.84,1.22,1.22,0,0,0,1.19-.81.91.91,0,0,0,0-.28Z" transform="translate(0)"/><path d="M288.75,37.1v1.16H290v.67h-1.26v2.6c0,.6.17.94.66.94a1.64,1.64,0,0,0,.51-.06l0,.67a2.4,2.4,0,0,1-.78.12,1.25,1.25,0,0,1-.95-.37,1.89,1.89,0,0,1-.34-1.27V38.93h-.75v-.67h.75v-.89Z" transform="translate(0)"/><path d="M296.53,41.94a8.14,8.14,0,0,0,.07,1.16h-.79l-.08-.61h0a1.79,1.79,0,0,1-1.48.72,1.38,1.38,0,0,1-1.48-1.39c0-1.17,1-1.81,2.91-1.8v-.1a1,1,0,0,0-1.1-1.12,2.33,2.33,0,0,0-1.27.36l-.2-.59a3.13,3.13,0,0,1,1.6-.42c1.49,0,1.85,1,1.85,2Zm-.86-1.31c-1,0-2,.15-2,1.09a.77.77,0,0,0,.82.84,1.22,1.22,0,0,0,1.19-.81.91.91,0,0,0,0-.28Z" transform="translate(0)"/><path d="M299,37.1v1.16h1.26v.67H299v2.6c0,.6.17.94.66.94a1.64,1.64,0,0,0,.51-.06l0,.67a2.4,2.4,0,0,1-.78.12,1.25,1.25,0,0,1-.95-.37,1.89,1.89,0,0,1-.34-1.27V38.93h-.75v-.67h.75v-.89Z" transform="translate(0)"/><path d="M306.63,42.36h0a1.73,1.73,0,0,1-1.58.85,2.2,2.2,0,0,1-2-2.45,2.32,2.32,0,0,1,2.19-2.61,1.59,1.59,0,0,1,1.49.84h0l0-.73h.84c0,.4,0,.83,0,1.33v5.49h-.88Zm0-2.14a1.45,1.45,0,0,0,0-.37,1.29,1.29,0,0,0-1.26-1c-.91,0-1.46.77-1.46,1.86s.46,1.8,1.43,1.8a1.31,1.31,0,0,0,1.26-1,1.47,1.47,0,0,0,.07-.42Z" transform="translate(0)"/><path d="M313,41.77c0,.51,0,.95,0,1.33h-.78l-.05-.79h0a1.81,1.81,0,0,1-1.6.9c-.76,0-1.67-.43-1.67-2.12V38.26h.88v2.67c0,.92.29,1.55,1.08,1.55a1.26,1.26,0,0,0,1.16-.81,1.19,1.19,0,0,0,.08-.45v-3H313Z" transform="translate(0)"/><path d="M316.44,43.21a2.31,2.31,0,0,1-2.32-2.49,2.37,2.37,0,0,1,2.4-2.57,2.29,2.29,0,0,1,2.33,2.48,2.37,2.37,0,0,1-2.4,2.58Zm0-.66c.84,0,1.47-.79,1.47-1.89,0-.82-.41-1.85-1.45-1.85s-1.48,1-1.48,1.88.6,1.86,1.45,1.86Z" transform="translate(0)"/><path d="M321,37.1v1.16h1.26v.67H321v2.6c0,.6.17.94.66.94a1.64,1.64,0,0,0,.51-.06l0,.67a2.4,2.4,0,0,1-.78.12,1.25,1.25,0,0,1-.95-.37,1.89,1.89,0,0,1-.34-1.27V38.93h-.75v-.67h.75v-.89Z" transform="translate(0)"/><path d="M323.69,37.44a.52.52,0,0,1-.53-.54.54.54,0,1,1,.54.54Zm-.42,5.66V38.26h.88V43.1Z" transform="translate(0)"/><path d="M325.61,39.57c0-.51,0-.91,0-1.31h.78l.05.79h0a1.79,1.79,0,0,1,1.6-.9c.67,0,1.71.4,1.71,2.06V43.1h-.88V40.31c0-.78-.29-1.44-1.12-1.44a1.27,1.27,0,0,0-1.18.9,1.31,1.31,0,0,0-.06.41V43.1h-.88Z" transform="translate(0)"/><path d="M335.3,42.39a2.84,2.84,0,0,1-.69,2.22,2.66,2.66,0,0,1-1.77.58,3.12,3.12,0,0,1-1.61-.4l.22-.68a2.63,2.63,0,0,0,1.42.39c.9,0,1.56-.47,1.56-1.7v-.53h0a1.71,1.71,0,0,1-1.54.81,2.17,2.17,0,0,1-2.06-2.37A2.31,2.31,0,0,1,333,38.15a1.6,1.6,0,0,1,1.51.84h0l0-.73h.78c0,.34,0,.74,0,1.32Zm-.88-2.23a1.23,1.23,0,0,0-.05-.39,1.25,1.25,0,0,0-1.23-.94c-.84,0-1.44.71-1.44,1.84,0,.94.49,1.74,1.43,1.74a1.26,1.26,0,0,0,1.22-.91,1.45,1.45,0,0,0,.07-.47Z" transform="translate(0)"/><path d="M337,43.21a.59.59,0,0,1-.58-.63A.6.6,0,0,1,337,42a.58.58,0,0,1,.59.63.59.59,0,0,1-.6.63Z" transform="translate(0)"/><path d="M339,43.21a.59.59,0,0,1-.58-.63.6.6,0,0,1,.6-.63.58.58,0,0,1,.59.63.59.59,0,0,1-.6.63Z" transform="translate(0)"/><path d="M341.11,43.21a.59.59,0,0,1-.58-.63.6.6,0,0,1,.6-.63.58.58,0,0,1,.59.63.59.59,0,0,1-.6.63Z" transform="translate(0)"/><path d="M343.18,43.21a.59.59,0,0,1-.58-.63.6.6,0,0,1,.6-.63.58.58,0,0,1,.59.63.59.59,0,0,1-.6.63Z" transform="translate(0)"/><path d="M251.26,55.1V48.36h1l2.15,3.41a18.9,18.9,0,0,1,1.2,2.19h0c-.08-.9-.1-1.72-.1-2.76V48.36h.82V55.1h-.88l-2.14-3.42A19.57,19.57,0,0,1,252,49.43h0c.05.85.06,1.66.06,2.78V55.1Z" transform="translate(0)"/><path d="M259.78,55.21a2.31,2.31,0,0,1-2.32-2.49,2.37,2.37,0,0,1,2.4-2.57,2.29,2.29,0,0,1,2.33,2.48,2.37,2.37,0,0,1-2.4,2.58Zm0-.66c.84,0,1.47-.79,1.47-1.89,0-.82-.41-1.85-1.45-1.85s-1.48,1-1.48,1.88.6,1.86,1.45,1.86Z" transform="translate(0)"/><path d="M263.58,50.26l.65,2.45c.13.54.26,1,.35,1.55h0c.11-.49.27-1,.43-1.54l.79-2.46h.74l.75,2.42c.18.57.32,1.09.43,1.58h0a14.41,14.41,0,0,1,.37-1.57l.69-2.43h.87l-1.56,4.84h-.8l-.74-2.31c-.17-.55-.31-1-.43-1.6h0a14.52,14.52,0,0,1-.44,1.61l-.78,2.3h-.8l-1.46-4.84Z" transform="translate(0)"/><path d="M269.63,56.34a14.82,14.82,0,0,0,.6-2.4l1-.1a12.8,12.8,0,0,1-1,2.43Z" transform="translate(0)"/><path d="M274.74,50.26l.65,2.45c.13.54.26,1,.35,1.55h0c.11-.49.27-1,.43-1.54l.79-2.46h.74l.75,2.42c.18.57.32,1.09.43,1.58h0a14.53,14.53,0,0,1,.37-1.57l.69-2.43h.87l-1.56,4.84h-.8l-.74-2.31c-.17-.55-.31-1-.43-1.6h0a14.52,14.52,0,0,1-.44,1.61l-.78,2.3h-.8l-1.46-4.84Z" transform="translate(0)"/><path d="M282.17,49.44a.52.52,0,0,1-.53-.54.54.54,0,1,1,.54.54Zm-.42,5.66V50.26h.88V55.1Z" transform="translate(0)"/><path d="M285.15,49.1v1.16h1.26v.67h-1.26v2.6c0,.6.17.94.66.94a1.64,1.64,0,0,0,.51-.06l0,.67a2.4,2.4,0,0,1-.78.12,1.25,1.25,0,0,1-.95-.37,1.89,1.89,0,0,1-.34-1.27V50.93h-.75v-.67h.75v-.89Z" transform="translate(0)"/><path d="M287.4,48h.88v3h0a1.56,1.56,0,0,1,.63-.62,1.71,1.71,0,0,1,.9-.25c.65,0,1.69.4,1.69,2.07V55.1h-.88V52.31c0-.78-.29-1.43-1.12-1.43a1.27,1.27,0,0,0-1.18.88,1.07,1.07,0,0,0-.06.42V55.1h-.88Z" transform="translate(0)"/><path d="M300.66,56.08c-.91-.23-1.8-.51-2.58-.77a1.35,1.35,0,0,0-.41-.1,3.09,3.09,0,0,1-3-3.41c0-2.16,1.31-3.55,3.13-3.55s3,1.42,3,3.41a3.14,3.14,0,0,1-1.92,3.23v0c.67.17,1.4.33,2,.43Zm-2.88-1.58c1.38,0,2.16-1.27,2.16-2.8,0-1.35-.7-2.74-2.13-2.74s-2.19,1.36-2.19,2.82.78,2.72,2.15,2.72Z" transform="translate(0)"/><path d="M306,53.77c0,.51,0,.95,0,1.33h-.78l0-.79h0a1.81,1.81,0,0,1-1.6.9c-.76,0-1.67-.43-1.67-2.12V50.26h.88v2.67c0,.92.29,1.55,1.08,1.55a1.26,1.26,0,0,0,1.16-.81,1.21,1.21,0,0,0,.08-.45v-3H306Z" transform="translate(0)"/><path d="M309.44,55.21a2.31,2.31,0,0,1-2.32-2.49,2.37,2.37,0,0,1,2.4-2.57,2.29,2.29,0,0,1,2.33,2.48,2.37,2.37,0,0,1-2.4,2.58Zm0-.66c.84,0,1.47-.79,1.47-1.89,0-.82-.41-1.85-1.45-1.85s-1.48,1-1.48,1.88.6,1.86,1.45,1.86Z" transform="translate(0)"/><path d="M314,49.1v1.16h1.26v.67H314v2.6c0,.6.17.94.66.94a1.64,1.64,0,0,0,.51-.06l0,.67a2.4,2.4,0,0,1-.78.12,1.25,1.25,0,0,1-.95-.37,1.89,1.89,0,0,1-.34-1.27V50.93h-.75v-.67h.75v-.89Z" transform="translate(0)"/><path d="M316.71,52.84a1.54,1.54,0,0,0,1.65,1.67,3.15,3.15,0,0,0,1.34-.25l.16.63a3.94,3.94,0,0,1-1.62.31,2.26,2.26,0,0,1-2.38-2.44,2.36,2.36,0,0,1,2.28-2.61,2,2,0,0,1,2,2.28,2.19,2.19,0,0,1,0,.41Zm2.57-.63a1.25,1.25,0,0,0-1.21-1.43,1.45,1.45,0,0,0-1.35,1.43Z" transform="translate(0)"/><path d="M323.37,48.46a7.65,7.65,0,0,1,1.59-.15,2.74,2.74,0,0,1,1.84.49,1.42,1.42,0,0,1,.57,1.19,1.59,1.59,0,0,1-1.14,1.48v0a1.72,1.72,0,0,1,1.39,1.68,1.79,1.79,0,0,1-.58,1.35,3.34,3.34,0,0,1-2.32.63,10.15,10.15,0,0,1-1.35-.08Zm.87,2.76H325c.91,0,1.45-.49,1.45-1.14S325.89,49,325,49a3.75,3.75,0,0,0-.77.06Zm0,3.22a4.76,4.76,0,0,0,.73,0c.9,0,1.73-.33,1.73-1.31s-.79-1.3-1.74-1.3h-.72Z" transform="translate(0)"/><path d="M332.81,53.77c0,.51,0,.95,0,1.33h-.78l0-.79h0a1.81,1.81,0,0,1-1.6.9c-.76,0-1.67-.43-1.67-2.12V50.26h.88v2.67c0,.92.29,1.55,1.08,1.55a1.27,1.27,0,0,0,1.16-.81,1.23,1.23,0,0,0,.08-.45v-3h.88Z" transform="translate(0)"/><path d="M334.69,49.44a.52.52,0,0,1-.53-.54.54.54,0,1,1,.54.54Zm-.42,5.66V50.26h.88V55.1Z" transform="translate(0)"/><path d="M336.61,48h.88v7.1h-.88Z" transform="translate(0)"/><path d="M343.15,48v5.85c0,.43,0,.92,0,1.25h-.79l0-.84h0a1.77,1.77,0,0,1-1.64.95,2.21,2.21,0,0,1-2.08-2.46,2.31,2.31,0,0,1,2.17-2.6,1.61,1.61,0,0,1,1.46.73h0V48Zm-.88,4.23a1.67,1.67,0,0,0,0-.38,1.3,1.3,0,0,0-1.27-1c-.91,0-1.45.8-1.45,1.86s.49,1.8,1.43,1.8a1.33,1.33,0,0,0,1.29-1.06,1.43,1.43,0,0,0,0-.37Z" transform="translate(0)"/><path d="M345.11,52.84a1.54,1.54,0,0,0,1.65,1.67,3.15,3.15,0,0,0,1.34-.25l.16.63a3.94,3.94,0,0,1-1.62.31,2.26,2.26,0,0,1-2.38-2.44,2.36,2.36,0,0,1,2.28-2.61,2,2,0,0,1,2,2.28,2.1,2.1,0,0,1,0,.41Zm2.57-.63a1.25,1.25,0,0,0-1.21-1.43,1.45,1.45,0,0,0-1.35,1.43Z" transform="translate(0)"/><path d="M349.62,51.77c0-.57,0-1.06,0-1.51h.77l0,.95h0a1.46,1.46,0,0,1,1.35-1.06l.24,0V51l-.3,0a1.23,1.23,0,0,0-1.18,1.12,2.79,2.79,0,0,0,0,.41V55.1h-.88Z" transform="translate(0)"/><path d="M351.79,56.34a14.82,14.82,0,0,0,.6-2.4l1-.1a12.77,12.77,0,0,1-1,2.43Z" transform="translate(0)"/><path d="M357.45,48.36V55.1h-.88V48.36Z" transform="translate(0)"/><path d="M360,48.18a12.29,12.29,0,0,1-.93,2.38l-.56.06a15.12,15.12,0,0,0,.59-2.34Z" transform="translate(0)"/><path d="M360.57,51.57c0-.51,0-.91,0-1.31h.77l0,.78h0a1.67,1.67,0,0,1,1.53-.89,1.43,1.43,0,0,1,1.36,1h0a1.91,1.91,0,0,1,.55-.63,1.62,1.62,0,0,1,1.06-.34c.65,0,1.6.42,1.6,2.1V55.1h-.86V52.36c0-.94-.35-1.49-1-1.49a1.16,1.16,0,0,0-1,.79,1.55,1.55,0,0,0-.07.44v3h-.86V52.19c0-.77-.34-1.32-1-1.32a1.31,1.31,0,0,0-1.16,1.31V55.1h-.86Z" transform="translate(0)"/><path d="M372.15,53l-.7,2.12h-.9l2.29-6.74h1l2.3,6.74h-.93L374.54,53Zm2.21-.68-.67-1.94c-.14-.44-.24-.84-.34-1.23h0c-.09.39-.2.81-.33,1.22l-.66,1.95Z" transform="translate(0)"/><path d="M382.82,52.14c0-.93-.11-2.08-.11-2.91h0c-.24.78-.51,1.64-.85,2.56l-1.19,3.27H380l-1.1-3.21c-.32-.95-.58-1.82-.77-2.62h0c0,.84-.07,2-.13,3l-.18,2.89H377l.47-6.74h1.11l1.15,3.26c.28.83.5,1.58.68,2.28h0c.18-.68.42-1.43.72-2.28l1.2-3.26h1.11l.42,6.74H383Z" transform="translate(0)"/><path d="M386.17,53l-.7,2.12h-.9l2.29-6.74h1l2.3,6.74h-.93L388.56,53Zm2.21-.68-.67-1.94c-.14-.44-.24-.84-.34-1.23h0c-.09.39-.2.81-.33,1.22l-.66,1.95Z" transform="translate(0)"/><path d="M390.74,54.59l3.74-5.47v0h-3.42v-.73h4.55v.53l-3.72,5.45v0h3.77v.73h-4.92Z" transform="translate(0)"/><path d="M397.6,48.36V55.1h-.88V48.36Z" transform="translate(0)"/><path d="M399.12,55.1V48.36h1l2.15,3.41a18.89,18.89,0,0,1,1.2,2.19h0c-.08-.9-.1-1.72-.1-2.76V48.36h.82V55.1h-.88l-2.14-3.42a19.65,19.65,0,0,1-1.25-2.25h0c0,.85.06,1.66.06,2.78V55.1Z" transform="translate(0)"/><path d="M410.84,54.8a6.09,6.09,0,0,1-2.08.37,3.16,3.16,0,0,1-3.46-3.4,3.37,3.37,0,0,1,3.65-3.48,4.23,4.23,0,0,1,1.69.31l-.22.71a3.34,3.34,0,0,0-1.49-.29,2.52,2.52,0,0,0-2.71,2.71,2.46,2.46,0,0,0,2.6,2.72,2.83,2.83,0,0,0,1.16-.18v-2h-1.36v-.7h2.22Z" transform="translate(0)"/><path d="M412.54,55.21a.62.62,0,0,1,0-1.24.62.62,0,0,1,0,1.24Zm-.33-2-.14-4.81h1l-.14,4.81Z" transform="translate(0)"/><path d="M415.53,48.18a12.29,12.29,0,0,1-.93,2.38l-.56.06a14.08,14.08,0,0,0,.59-2.34Zm1.48,0a12.35,12.35,0,0,1-.93,2.38l-.56.06a15,15,0,0,0,.59-2.34Z" transform="translate(0)"/></svg>